<svg width="261" height="281" viewBox="0 0 261 281" fill="none" xmlns="http://www.w3.org/2000/svg">
<path d="M20 0.368164H240.067C250.91 0.368164 259.699 9.15779 259.699 20V179.905H0.368164V20C0.368172 9.1578 9.1578 0.368164 20 0.368164Z" fill="#1440FF"/>
<path d="M20 0.368164H240.067C250.91 0.368164 259.699 9.15779 259.699 20V179.905H0.368164V20C0.368172 9.1578 9.1578 0.368164 20 0.368164Z" stroke="url(#paint0_linear_658_186)" stroke-width="0.736889"/>
<path d="M209.871 26.6875H208.388V22.4002H209.871C210.531 22.4002 210.981 22.5671 211.223 22.9009C211.465 23.2348 211.586 23.7584 211.586 24.4719C211.586 24.8349 211.561 25.1437 211.511 25.3982C211.465 25.6485 211.382 25.8759 211.261 26.0804C211.023 26.4851 210.56 26.6875 209.871 26.6875ZM210.866 24.4719C210.866 23.9545 210.802 23.5811 210.672 23.3516C210.543 23.1221 210.276 23.0073 209.871 23.0073H209.083V26.0741H209.871C210.284 26.0741 210.56 25.9218 210.697 25.6173C210.764 25.4629 210.808 25.2981 210.829 25.1228C210.854 24.9476 210.866 24.7306 210.866 24.4719ZM213.774 26.6875V22.4002H216.478V23.0073H214.469V24.2215H216.103V24.8224H214.469V26.0741H216.478V26.6875H213.774ZM219.869 22.9385C219.339 22.9385 219.074 23.1242 219.074 23.4955C219.074 23.6875 219.137 23.8252 219.262 23.9086C219.387 23.9879 219.662 24.088 220.088 24.209C220.518 24.3259 220.82 24.4677 220.995 24.6346C221.171 24.7974 221.258 25.056 221.258 25.4107C221.258 25.8613 221.129 26.1993 220.87 26.4246C220.616 26.6458 220.267 26.7563 219.825 26.7563C219.47 26.7563 219.078 26.7146 218.648 26.6312L218.423 26.5874L218.492 26.0303C219.055 26.1054 219.485 26.143 219.781 26.143C220.299 26.143 220.557 25.9135 220.557 25.4545C220.557 25.2751 220.499 25.1437 220.382 25.0602C220.265 24.9726 220.002 24.8787 219.593 24.7786C219.185 24.6743 218.88 24.5324 218.68 24.353C218.479 24.1736 218.379 23.8898 218.379 23.5018C218.379 23.1137 218.504 22.8217 218.755 22.6256C219.009 22.4253 219.36 22.3251 219.806 22.3251C220.128 22.3251 220.507 22.3627 220.945 22.4378L221.164 22.4754L221.108 23.0386C220.524 22.9719 220.111 22.9385 219.869 22.9385ZM224.869 26.6875H223.386V22.4002H224.869C225.529 22.4002 225.979 22.5671 226.221 22.9009C226.463 23.2348 226.584 23.7584 226.584 24.4719C226.584 24.8349 226.559 25.1437 226.509 25.3982C226.463 25.6485 226.38 25.8759 226.259 26.0804C226.021 26.4851 225.558 26.6875 224.869 26.6875ZM225.865 24.4719C225.865 23.9545 225.8 23.5811 225.67 23.3516C225.541 23.1221 225.274 23.0073 224.869 23.0073H224.081V26.0741H224.869C225.282 26.0741 225.558 25.9218 225.696 25.6173C225.762 25.4629 225.806 25.2981 225.827 25.1228C225.852 24.9476 225.865 24.7306 225.865 24.4719ZM228.772 26.6875V22.4002H231.476V23.0073H229.467V24.2215H231.101V24.8224H229.467V26.0741H231.476V26.6875H228.772Z" fill="#F3F3F3"/>
<path d="M210.625 40.1426H204.418V38.7552L206.798 36.3018C207.519 35.5619 208.025 34.9826 208.317 34.5639C208.609 34.1453 208.755 33.6877 208.755 33.1912C208.755 32.6849 208.614 32.3247 208.332 32.1105C208.049 31.8963 207.587 31.7892 206.944 31.7892C206.341 31.7892 205.674 31.8574 204.944 31.9937L204.579 32.0521L204.476 30.767C205.421 30.4846 206.399 30.3434 207.412 30.3434C209.427 30.3434 210.435 31.2391 210.435 33.0305C210.435 33.7315 210.279 34.34 209.967 34.856C209.666 35.372 209.12 35.9951 208.332 36.7253L206.273 38.726H210.625V40.1426ZM212.955 31.5263C213.568 30.7377 214.483 30.3434 215.7 30.3434C216.917 30.3434 217.828 30.7329 218.431 31.5117C219.035 32.2906 219.337 33.5806 219.337 35.3817C219.337 37.1731 219.03 38.4437 218.417 39.1933C217.813 39.9333 216.903 40.3032 215.686 40.3032C214.479 40.3032 213.568 39.9333 212.955 39.1933C212.351 38.4534 212.049 37.1877 212.049 35.3964C212.049 33.5952 212.351 32.3052 212.955 31.5263ZM217.205 32.5632C216.903 32.0277 216.401 31.76 215.7 31.76C214.999 31.76 214.493 32.0277 214.182 32.5632C213.88 33.089 213.729 34.0187 213.729 35.3525C213.729 36.6864 213.885 37.6113 214.196 38.1273C214.517 38.6335 215.019 38.8867 215.7 38.8867C216.392 38.8867 216.888 38.6335 217.19 38.1273C217.501 37.6113 217.657 36.6864 217.657 35.3525C217.657 34.0187 217.506 33.089 217.205 32.5632ZM226.968 40.1426H220.762V38.7552L223.142 36.3018C223.862 35.5619 224.369 34.9826 224.661 34.5639C224.953 34.1453 225.099 33.6877 225.099 33.1912C225.099 32.6849 224.958 32.3247 224.675 32.1105C224.393 31.8963 223.931 31.7892 223.288 31.7892C222.684 31.7892 222.018 31.8574 221.287 31.9937L220.922 32.0521L220.82 30.767C221.764 30.4846 222.743 30.3434 223.755 30.3434C225.771 30.3434 226.778 31.2391 226.778 33.0305C226.778 33.7315 226.623 34.34 226.311 34.856C226.009 35.372 225.464 35.9951 224.675 36.7253L222.616 38.726H226.968V40.1426ZM235.023 30.5041V31.9353H230.554L230.306 34.4763C230.968 34.1745 231.621 34.0236 232.263 34.0236C234.327 34.0236 235.359 34.9874 235.359 36.9151C235.359 38.0056 235.072 38.8428 234.497 39.427C233.933 40.0111 233.13 40.3032 232.088 40.3032C231.65 40.3032 231.153 40.2594 230.598 40.1718C230.043 40.0939 229.6 40.016 229.269 39.9381L228.773 39.8067L228.948 38.58C230.097 38.7747 231.08 38.872 231.898 38.872C232.463 38.872 232.901 38.7163 233.212 38.4047C233.524 38.0932 233.68 37.6502 233.68 37.0758C233.68 36.5014 233.543 36.0876 233.271 35.8345C232.998 35.5813 232.643 35.4548 232.205 35.4548C231.416 35.4548 230.774 35.5521 230.277 35.7468L230.014 35.8491L228.992 35.63L229.255 30.5041H235.023Z" fill="#F3F3F3"/>
<path d="M45.3034 28.1675C46.9461 28.1675 47.9073 30.016 46.9661 31.3609L46.3725 32.2102L42.1279 38.2734H37.1959L40.9689 32.8857C41.1687 32.5999 40.9649 32.2102 40.6172 32.2102H35.3434C34.6559 32.2102 34.0125 32.546 33.6188 33.1075L30.0017 38.2734H25.0676L29.3142 32.2102L29.7199 31.6307L30.3334 30.7534C31.4685 29.1327 33.323 28.1675 35.3014 28.1675H45.3054H45.3034Z" fill="#E6EAFF"/>
<path d="M64.248 28.1675L61.4183 32.2102H53.8484C53.2928 32.2102 52.7712 32.482 52.4535 32.9357L48.7165 38.2734H43.7844L48.031 32.2102L48.4367 31.6307L49.1861 30.5596C50.2373 29.0608 51.9519 28.1675 53.7824 28.1675H64.25H64.248Z" fill="#E6EAFF"/>
<path d="M68.0674 22.7275L65.2377 26.7703H33.5591L34.5783 25.3135C35.7154 23.6928 37.5679 22.7275 39.5463 22.7275H68.0654H68.0674Z" fill="#E6EAFF"/>
<g clip-path="url(#clip0_658_186)">
<path d="M122.137 151.72H121.679C120.789 151.72 119.898 151.708 119.008 151.726C118.7 151.732 118.489 151.642 118.283 151.408C115.885 148.695 113.478 145.992 111.074 143.286C110.969 143.169 110.863 143.054 110.758 142.937C110.728 142.949 110.697 142.96 110.667 142.972V151.689H107.174C107.073 151.371 107.024 139.213 107.122 137.935C107.228 137.923 107.34 137.902 107.452 137.901C108.431 137.898 109.411 137.909 110.39 137.893C110.643 137.889 110.798 137.987 110.955 138.165C113.366 140.885 115.781 143.601 118.196 146.317C118.3 146.435 118.411 146.547 118.595 146.742V137.927H122.099C122.19 138.25 122.232 150.66 122.138 151.72H122.137Z" fill="white"/>
<path d="M85.5406 146.677C85.6462 146.601 85.7287 146.541 85.8125 146.481C87.4554 145.319 88.2471 143.773 87.9501 141.737C87.7146 140.127 86.8948 138.962 85.3607 138.347C84.6516 138.063 83.9086 137.909 83.1483 137.906C80.196 137.894 77.2438 137.901 74.2915 137.903C74.1942 137.903 74.0957 137.928 74.0048 137.94C73.9184 138.817 73.9555 151.372 74.0445 151.696H77.5458V147.446H81.8651C81.9381 147.566 82.0174 147.691 82.0917 147.817C82.7713 148.983 83.4625 150.141 84.1211 151.317C84.2983 151.635 84.5031 151.737 84.8551 151.728C85.7895 151.705 86.7245 151.72 87.6589 151.72H88.4762C87.4637 149.98 86.5057 148.334 85.5406 146.676V146.677ZM83.8247 143.821C83.57 144.384 83.1777 144.69 82.5096 144.676C81.0261 144.644 79.5413 144.666 78.0572 144.666H77.5657V140.675C77.7071 140.663 77.8345 140.642 77.9618 140.642C79.3717 140.64 80.7816 140.64 82.1921 140.642C82.3406 140.642 82.4897 140.646 82.6363 140.663C83.3256 140.746 83.7851 141.142 83.9406 141.816C84.098 142.493 84.1191 143.169 83.8241 143.821H83.8247Z" fill="white"/>
<path d="M135.151 137.918H130.334C128.314 142.499 126.298 147.075 124.264 151.69H128.345C128.656 150.908 128.956 150.153 129.255 149.402H136.228C136.54 150.181 136.845 150.945 137.142 151.687H141.22C139.181 147.062 137.163 142.485 135.151 137.918H135.151ZM130.344 146.625C131.14 144.602 131.916 142.632 132.691 140.661C132.725 140.661 132.758 140.661 132.792 140.661C133.564 142.622 134.337 144.583 135.14 146.622C133.525 146.63 131.968 146.624 130.344 146.626V146.625Z" fill="white"/>
<path d="M103.78 148.967V151.695H91.7998V137.923H103.563C103.658 138.233 103.687 139.778 103.606 140.624C103.165 140.659 102.71 140.635 102.258 140.64C101.798 140.644 101.338 140.64 100.877 140.64H95.3748V143.402H102.745V146.147H95.3703V148.95C96.0583 148.989 96.7495 148.962 97.4387 148.966C98.151 148.971 98.8633 148.967 99.5763 148.967H103.78Z" fill="white"/>
<path d="M157.205 146.979C157.204 147.363 157.185 147.752 157.121 148.131C156.882 149.558 156.069 150.55 154.763 151.151C153.835 151.578 152.846 151.761 151.841 151.871C151.428 151.917 151.014 151.956 150.599 151.979C149.013 152.065 147.456 151.903 145.962 151.345C145.496 151.171 145.043 150.925 144.635 150.639C143.596 149.911 143.084 148.874 142.997 147.62C142.985 147.443 142.988 147.264 142.988 147.086C142.987 144.209 142.988 141.331 142.988 138.453V137.921H146.555V138.458C146.555 141.247 146.572 144.035 146.544 146.824C146.537 147.559 146.853 148.031 147.445 148.381C147.912 148.655 148.422 148.81 148.952 148.895C150.007 149.062 151.053 149.021 152.071 148.671C152.321 148.585 152.564 148.468 152.794 148.335C153.349 148.015 153.635 147.559 153.628 146.881C153.606 144.508 153.619 142.135 153.62 139.762C153.62 139.273 153.625 138.782 153.631 138.293C153.632 138.178 153.647 138.062 153.658 137.925H157.178C157.188 138.048 157.208 138.175 157.208 138.302C157.21 141.194 157.213 144.087 157.206 146.979L157.205 146.979Z" fill="white"/>
<path d="M185.178 137.917V140.635H179.817V151.692H176.252C176.249 151.089 176.244 150.488 176.242 149.887C176.241 149.265 176.242 148.641 176.242 148.019V140.64H170.93C170.829 140.092 170.851 138.213 170.952 137.917H185.178Z" fill="white"/>
<path d="M172.563 148.966V151.691H161.187V137.927H164.726V148.966H172.563Z" fill="white"/>
<path d="M144.376 94.5465C142.982 97.1794 141.601 99.8193 140.214 102.457C137.875 106.905 135.534 111.353 133.193 115.8C131.047 119.88 128.899 123.96 126.758 128.043C126.641 128.267 126.507 128.36 126.244 128.357C125.028 128.346 123.811 128.359 122.593 128.362C122.536 128.362 122.477 128.352 122.376 128.344C116.413 116.976 110.443 105.596 104.459 94.1887C104.832 93.4771 105.207 92.7552 105.585 92.0358C108.386 86.7079 111.186 81.38 113.989 76.0534C116.508 71.2644 119.03 66.4773 121.551 61.6896C121.8 61.2173 122.056 60.7488 122.291 60.2701C122.382 60.087 122.497 59.9994 122.701 60C124.126 60.0038 125.55 60.0032 126.974 60.0064C127.014 60.0064 127.055 60.0307 127.135 60.0576C127.025 60.2771 126.922 60.4845 126.815 60.6886C123.819 66.3826 120.823 72.0766 117.827 77.7705C115.584 82.0347 113.342 86.2996 111.098 90.5638C110.518 91.6659 109.939 92.7686 109.351 93.8655C109.235 94.0806 109.221 94.2515 109.342 94.4806C111.904 99.331 114.457 104.186 117.011 109.041C119.419 113.619 121.825 118.199 124.234 122.778C124.315 122.933 124.404 123.084 124.518 123.288C129.638 113.555 134.731 103.877 139.829 94.1868C139.392 93.3523 138.96 92.5248 138.526 91.6992C136.608 88.0513 134.688 84.404 132.767 80.7573C132.36 79.9829 131.952 79.2092 131.542 78.4367C131.458 78.2761 131.398 78.1398 131.503 77.9433C132.233 76.5859 132.948 75.2195 133.668 73.857C133.688 73.8192 133.722 73.7885 133.789 73.7053C134.423 74.9098 135.038 76.0771 135.652 77.2438C137.799 81.3244 139.946 85.4043 142.094 89.4848C142.853 90.928 143.603 92.3763 144.376 93.8124C144.52 94.0793 144.517 94.2822 144.376 94.5465Z" fill="white"/>
<path d="M154.674 94.183C148.684 105.569 142.699 116.943 136.712 128.325H131.98C137.981 116.917 143.957 105.557 149.94 94.183C144.848 84.5045 139.755 74.8247 134.62 65.0668C129.486 74.8253 124.395 84.5013 119.302 94.183C119.971 95.4559 120.633 96.7154 121.294 97.9743C123.276 101.741 125.258 105.506 127.239 109.272C127.245 109.285 127.25 109.299 127.257 109.312C127.404 109.618 127.662 109.921 127.666 110.228C127.67 110.517 127.411 110.813 127.26 111.102C126.695 112.178 126.128 113.253 125.559 114.328C125.506 114.427 125.438 114.519 125.344 114.666C121.736 107.808 118.157 101.003 114.569 94.1836C115.068 93.2345 115.564 92.2912 116.061 91.3466C118.546 86.6228 121.03 81.8991 123.515 77.1753C125.877 72.6871 128.241 68.2008 130.603 63.7132C131.203 62.5721 131.805 61.4304 132.4 60.2861C132.487 60.1178 132.57 59.9987 132.793 60C134.097 60.0096 135.402 60.0045 136.746 60.0045C142.718 71.3879 148.695 82.7823 154.675 94.1823L154.674 94.183Z" fill="white"/>
</g>
<path d="M0 180.274H260.067V260.755C260.067 271.801 251.113 280.755 240.067 280.755H20C8.9543 280.755 0 271.801 0 260.755V180.274Z" fill="white"/>
<path d="M26.7943 211.415H24.1726V216.05H20.9422V200.133H26.7943C30.5709 200.133 32.4591 201.974 32.4591 205.657C32.4591 207.514 31.9754 208.942 31.0078 209.941C30.0559 210.924 28.6514 211.415 26.7943 211.415ZM24.1726 208.653H26.7709C28.3783 208.653 29.182 207.654 29.182 205.657C29.182 204.674 28.9869 203.972 28.5967 203.55C28.2066 203.113 27.598 202.895 26.7709 202.895H24.1726V208.653ZM43.2969 207.998V212.867C43.3281 213.241 43.3905 213.507 43.4842 213.663C43.5778 213.803 43.7729 213.905 44.0694 213.967L43.9757 216.331C43.1798 216.331 42.54 216.277 42.0562 216.167C41.5881 216.058 41.1121 215.84 40.6283 215.512C39.5047 216.058 38.3577 216.331 37.1873 216.331C34.7684 216.331 33.559 215.052 33.559 212.492C33.559 211.244 33.8945 210.362 34.5655 209.847C35.2366 209.316 36.2665 209.004 37.6555 208.911L40.1602 208.723V207.998C40.1602 207.514 40.0509 207.186 39.8324 207.015C39.614 206.827 39.2628 206.734 38.7791 206.734L34.3783 206.921L34.2846 204.744C35.9544 204.291 37.5384 204.065 39.0365 204.065C40.5503 204.065 41.6349 204.377 42.2903 205.002C42.9614 205.626 43.2969 206.624 43.2969 207.998ZM38.03 211.088C37.1561 211.166 36.7191 211.634 36.7191 212.492C36.7191 213.351 37.1015 213.78 37.8661 213.78C38.4591 213.78 39.1068 213.686 39.809 213.499L40.1602 213.405V210.9L38.03 211.088ZM46.2871 216.05V204.346H49.4005V205.587C50.7113 204.806 51.9598 204.299 53.1458 204.065V207.225C51.8818 207.491 50.7972 207.764 49.892 208.045L49.4239 208.208V216.05H46.2871ZM59.3741 204.065C60.1856 204.065 61.2234 204.19 62.4874 204.44L63.1194 204.58L63.0258 207.061C61.793 206.937 60.88 206.874 60.287 206.874C59.2102 206.874 58.4924 207.108 58.1335 207.576C57.7901 208.029 57.6185 208.895 57.6185 210.175C57.6185 211.454 57.7901 212.336 58.1335 212.82C58.4924 213.288 59.218 213.522 60.3104 213.522L63.0258 213.335L63.1194 215.84C61.4496 216.167 60.1778 216.331 59.3039 216.331C57.5716 216.331 56.3232 215.847 55.5585 214.88C54.8095 213.897 54.4349 212.328 54.4349 210.175C54.4349 208.021 54.8251 206.468 55.6053 205.516C56.3856 204.549 57.6419 204.065 59.3741 204.065ZM67.9271 211.532C67.9427 212.25 68.13 212.773 68.4889 213.101C68.8635 213.413 69.3941 213.569 70.0807 213.569C71.532 213.569 72.8273 213.522 73.9665 213.429L74.622 213.358L74.6688 215.676C72.8741 216.113 71.2511 216.331 69.7998 216.331C68.0364 216.331 66.7567 215.863 65.9608 214.927C65.1649 213.99 64.767 212.469 64.767 210.362C64.767 206.164 66.4914 204.065 69.9403 204.065C73.3423 204.065 75.0433 205.829 75.0433 209.355L74.8092 211.532H67.9271ZM71.9534 209.145C71.9534 208.208 71.8051 207.561 71.5086 207.202C71.2121 206.827 70.6893 206.64 69.9403 206.64C69.2068 206.64 68.684 206.835 68.3719 207.225C68.0754 207.6 67.9193 208.24 67.9037 209.145H71.9534ZM77.285 216.05V204.346H80.4218V216.05H77.285ZM77.285 202.848V199.664H80.4218V202.848H77.285ZM83.32 216.05V204.346H86.4333V205.587C87.7442 204.806 88.9927 204.299 90.1787 204.065V207.225C88.9146 207.491 87.83 207.764 86.9249 208.045L86.4568 208.208V216.05H83.32ZM92.6616 205.68C93.4887 204.604 94.8698 204.065 96.8049 204.065C98.74 204.065 100.121 204.604 100.948 205.68C101.775 206.742 102.189 208.24 102.189 210.175C102.189 214.279 100.394 216.331 96.8049 216.331C93.2156 216.331 91.421 214.279 91.421 210.175C91.421 208.24 91.8345 206.742 92.6616 205.68ZM95.0727 212.82C95.4004 213.382 95.9778 213.663 96.8049 213.663C97.632 213.663 98.2016 213.382 98.5137 212.82C98.8415 212.258 99.0053 211.376 99.0053 210.175C99.0053 208.973 98.8415 208.099 98.5137 207.553C98.2016 207.007 97.632 206.734 96.8049 206.734C95.9778 206.734 95.4004 207.007 95.0727 207.553C94.7606 208.099 94.6045 208.973 94.6045 210.175C94.6045 211.376 94.7606 212.258 95.0727 212.82ZM30.0949 240.05V233.449H24.1726V240.05H20.9422V224.133H24.1726V230.64H30.0949V224.133H33.3253V240.05H30.0949ZM36.998 229.68C37.8251 228.604 39.2062 228.065 41.1413 228.065C43.0764 228.065 44.4575 228.604 45.2846 229.68C46.1117 230.742 46.5252 232.24 46.5252 234.175C46.5252 238.279 44.7306 240.331 41.1413 240.331C37.552 240.331 35.7574 238.279 35.7574 234.175C35.7574 232.24 36.1709 230.742 36.998 229.68ZM39.4091 236.82C39.7368 237.382 40.3142 237.663 41.1413 237.663C41.9684 237.663 42.538 237.382 42.8501 236.82C43.1778 236.258 43.3417 235.376 43.3417 234.175C43.3417 232.973 43.1778 232.099 42.8501 231.553C42.538 231.007 41.9684 230.734 41.1413 230.734C40.3142 230.734 39.7368 231.007 39.4091 231.553C39.097 232.099 38.9409 232.973 38.9409 234.175C38.9409 235.376 39.097 236.258 39.4091 236.82ZM51.9613 240.05H48.8246V228.346H51.9379V229.002C53.0147 228.377 53.9354 228.065 54.7001 228.065C55.9641 228.065 56.9395 228.432 57.6261 229.165C59.0619 228.432 60.3727 228.065 61.5588 228.065C63.1037 228.065 64.1727 228.518 64.7657 229.423C65.3743 230.312 65.6787 231.74 65.6787 233.707V240.05H62.5419V233.8C62.5419 232.801 62.4327 232.068 62.2142 231.6C61.9957 231.116 61.5588 230.874 60.9033 230.874C60.4039 230.874 59.7953 230.983 59.0775 231.202L58.7263 231.319C58.7888 232.489 58.82 233.379 58.82 233.988V240.05H55.6832V234.034C55.6832 232.88 55.5818 232.068 55.3789 231.6C55.1761 231.116 54.7313 230.874 54.0447 230.874C53.436 230.874 52.8352 230.983 52.2422 231.202L51.9613 231.296V240.05ZM69.0932 229.68C69.9203 228.604 71.3014 228.065 73.2365 228.065C75.1716 228.065 76.5527 228.604 77.3798 229.68C78.2069 230.742 78.6204 232.24 78.6204 234.175C78.6204 238.279 76.8258 240.331 73.2365 240.331C69.6472 240.331 67.8525 238.279 67.8525 234.175C67.8525 232.24 68.2661 230.742 69.0932 229.68ZM71.5042 236.82C71.832 237.382 72.4094 237.663 73.2365 237.663C74.0636 237.663 74.6332 237.382 74.9453 236.82C75.273 236.258 75.4369 235.376 75.4369 234.175C75.4369 232.973 75.273 232.099 74.9453 231.553C74.6332 231.007 74.0636 230.734 73.2365 230.734C72.4094 230.734 71.832 231.007 71.5042 231.553C71.1921 232.099 71.0361 232.973 71.0361 234.175C71.0361 235.376 71.1921 236.258 71.5042 236.82ZM81.0602 240.05V223.664H84.1969V240.05H81.0602ZM87.8611 229.68C88.6882 228.604 90.0693 228.065 92.0044 228.065C93.9395 228.065 95.3206 228.604 96.1477 229.68C96.9748 230.742 97.3883 232.24 97.3883 234.175C97.3883 238.279 95.5937 240.331 92.0044 240.331C88.4151 240.331 86.6204 238.279 86.6204 234.175C86.6204 232.24 87.034 230.742 87.8611 229.68ZM90.2721 236.82C90.5999 237.382 91.1773 237.663 92.0044 237.663C92.8315 237.663 93.4011 237.382 93.7132 236.82C94.0409 236.258 94.2048 235.376 94.2048 234.175C94.2048 232.973 94.0409 232.099 93.7132 231.553C93.4011 231.007 92.8315 230.734 92.0044 230.734C91.1773 230.734 90.5999 231.007 90.2721 231.553C89.96 232.099 89.804 232.973 89.804 234.175C89.804 235.376 89.96 236.258 90.2721 236.82ZM110.292 241.502C110.292 242.844 109.777 243.835 108.747 244.474C107.717 245.114 106.32 245.434 104.557 245.434C102.809 245.434 101.459 245.2 100.507 244.732C99.5706 244.264 99.1024 243.413 99.1024 242.18C99.1024 241.197 99.6642 240.269 100.788 239.395C100.21 239.005 99.9217 238.412 99.9217 237.616C99.9217 237.304 100.156 236.789 100.624 236.071L100.835 235.743C99.7735 234.978 99.2429 233.855 99.2429 232.372C99.2429 230.874 99.6876 229.79 100.577 229.119C101.482 228.448 102.676 228.112 104.159 228.112C104.83 228.112 105.493 228.19 106.148 228.346L106.523 228.416L110.292 228.299V230.804L108.536 230.664C108.879 231.194 109.051 231.725 109.051 232.255C109.051 233.816 108.653 234.893 107.857 235.486C107.061 236.079 105.813 236.375 104.112 236.375C103.753 236.375 103.433 236.344 103.152 236.282C102.996 236.687 102.918 237.023 102.918 237.288C102.918 237.538 103.051 237.709 103.316 237.803C103.581 237.897 104.205 237.951 105.189 237.967C107.155 237.983 108.497 238.248 109.215 238.763C109.933 239.262 110.292 240.175 110.292 241.502ZM102.192 241.853C102.192 242.524 103.012 242.859 104.65 242.859C106.304 242.859 107.132 242.469 107.132 241.689C107.132 241.268 106.991 240.994 106.71 240.87C106.429 240.76 105.836 240.698 104.931 240.682L102.824 240.518C102.403 240.94 102.192 241.385 102.192 241.853ZM102.38 232.279C102.38 233.418 102.973 233.988 104.159 233.988C105.36 233.988 105.961 233.418 105.961 232.279C105.961 231.124 105.36 230.546 104.159 230.546C102.973 230.546 102.38 231.124 102.38 232.279ZM121.157 231.998V236.867C121.189 237.241 121.251 237.507 121.345 237.663C121.438 237.803 121.633 237.905 121.93 237.967L121.836 240.331C121.04 240.331 120.401 240.277 119.917 240.167C119.449 240.058 118.973 239.84 118.489 239.512C117.365 240.058 116.218 240.331 115.048 240.331C112.629 240.331 111.419 239.052 111.419 236.492C111.419 235.244 111.755 234.362 112.426 233.847C113.097 233.316 114.127 233.004 115.516 232.911L118.021 232.723V231.998C118.021 231.514 117.911 231.186 117.693 231.015C117.474 230.827 117.123 230.734 116.64 230.734L112.239 230.921L112.145 228.744C113.815 228.291 115.399 228.065 116.897 228.065C118.411 228.065 119.495 228.377 120.151 229.002C120.822 229.626 121.157 230.624 121.157 231.998ZM115.89 235.088C115.017 235.166 114.58 235.634 114.58 236.492C114.58 237.351 114.962 237.78 115.727 237.78C116.32 237.78 116.967 237.686 117.67 237.499L118.021 237.405V234.9L115.89 235.088ZM134.096 223.664V240.05H130.983V239.559C129.891 240.074 128.946 240.331 128.15 240.331C126.449 240.331 125.263 239.84 124.592 238.856C123.921 237.873 123.586 236.321 123.586 234.198C123.586 232.06 123.984 230.507 124.78 229.54C125.591 228.557 126.808 228.065 128.431 228.065C128.931 228.065 129.625 228.143 130.515 228.299L130.96 228.393V223.664H134.096ZM130.632 237.241L130.96 237.171V231.015C130.101 230.859 129.337 230.781 128.665 230.781C127.401 230.781 126.769 231.904 126.769 234.151C126.769 235.369 126.91 236.235 127.191 236.75C127.472 237.265 127.932 237.522 128.572 237.522C129.227 237.522 129.914 237.429 130.632 237.241ZM137.627 229.68C138.454 228.604 139.835 228.065 141.77 228.065C143.705 228.065 145.086 228.604 145.913 229.68C146.741 230.742 147.154 232.24 147.154 234.175C147.154 238.279 145.359 240.331 141.77 240.331C138.181 240.331 136.386 238.279 136.386 234.175C136.386 232.24 136.8 230.742 137.627 229.68ZM140.038 236.82C140.366 237.382 140.943 237.663 141.77 237.663C142.597 237.663 143.167 237.382 143.479 236.82C143.807 236.258 143.971 235.376 143.971 234.175C143.971 232.973 143.807 232.099 143.479 231.553C143.167 231.007 142.597 230.734 141.77 230.734C140.943 230.734 140.366 231.007 140.038 231.553C139.726 232.099 139.57 232.973 139.57 234.175C139.57 235.376 139.726 236.258 140.038 236.82Z" fill="#00020A"/>
<path d="M20.8881 261.844H20.1762V262.927H19.6117V259.443H20.8881C21.678 259.443 22.073 259.833 22.073 260.613C22.073 261.013 21.9729 261.318 21.7729 261.528C21.5763 261.739 21.2814 261.844 20.8881 261.844ZM20.1762 261.355H20.883C21.2898 261.355 21.4932 261.108 21.4932 260.613C21.4932 260.376 21.4441 260.203 21.3458 260.094C21.2474 259.986 21.0932 259.932 20.883 259.932H20.1762V261.355ZM23.7349 262.927V259.443H25.9317V259.937H24.2994V260.923H25.6266V261.411H24.2994V262.428H25.9317V262.927H23.7349ZM28.2289 261.686V262.927H27.6645V259.443H28.9866C29.7731 259.443 30.1664 259.813 30.1664 260.552C30.1664 261.047 29.9765 261.383 29.5968 261.559L30.1715 262.927H29.5511L29.0476 261.686H28.2289ZM29.5867 260.557C29.5867 260.14 29.3867 259.932 28.9866 259.932H28.2289V261.198H28.9968C29.2002 261.198 29.3494 261.14 29.4443 261.025C29.5392 260.906 29.5867 260.75 29.5867 260.557ZM31.9267 262.927V259.443H34.088V259.937H32.4912V261.111H33.8184V261.605H32.4912V262.927H31.9267ZM36.3224 262.189C36.4376 262.389 36.658 262.489 36.9834 262.489C37.3089 262.489 37.5276 262.391 37.6394 262.194C37.7547 261.998 37.8123 261.669 37.8123 261.208C37.8123 260.743 37.753 260.406 37.6344 260.196C37.5191 259.986 37.3021 259.881 36.9834 259.881C36.6648 259.881 36.4461 259.986 36.3274 260.196C36.2088 260.406 36.1495 260.742 36.1495 261.203C36.1495 261.661 36.2071 261.989 36.3224 262.189ZM38.0819 262.556C37.8751 262.84 37.5089 262.983 36.9834 262.983C36.458 262.983 36.0901 262.84 35.8799 262.556C35.6698 262.267 35.5647 261.816 35.5647 261.203C35.5647 260.589 35.6698 260.133 35.8799 259.835C36.0935 259.537 36.4614 259.387 36.9834 259.387C37.5055 259.387 37.8717 259.537 38.0819 259.835C38.292 260.13 38.3971 260.586 38.3971 261.203C38.3971 261.82 38.292 262.271 38.0819 262.556ZM40.7376 261.686V262.927H40.1732V259.443H41.4953C42.2818 259.443 42.6751 259.813 42.6751 260.552C42.6751 261.047 42.4853 261.383 42.1056 261.559L42.6802 262.927H42.0598L41.5563 261.686H40.7376ZM42.0954 260.557C42.0954 260.14 41.8954 259.932 41.4953 259.932H40.7376V261.198H41.5055C41.7089 261.198 41.8581 261.14 41.953 261.025C42.0479 260.906 42.0954 260.75 42.0954 260.557ZM44.4354 262.927V259.443H45.4169L46.1949 262.164L46.973 259.443H47.9595V262.927H47.39V260.069H47.3137L46.4899 262.784H45.9L45.0762 260.069H44.9999V262.927H44.4354ZM49.5746 262.927L50.434 259.443H51.5579L52.4224 262.927H51.8528L51.6647 262.179H50.3272L50.1391 262.927H49.5746ZM50.8714 259.916L50.4391 261.681H51.5528L51.1256 259.916H50.8714ZM54.0376 262.927V259.443H55.0241L56.0819 262.428H56.1581V259.443H56.7226V262.927H55.7564L54.6733 259.937H54.6021V262.927H54.0376ZM59.8121 262.983C59.3036 262.983 58.9578 262.842 58.7747 262.561C58.5951 262.279 58.5052 261.816 58.5052 261.172C58.5052 260.528 58.5968 260.071 58.7798 259.799C58.9629 259.525 59.307 259.387 59.8121 259.387C60.1139 259.387 60.4461 259.43 60.8088 259.515L60.7885 259.972C60.4834 259.918 60.1783 259.891 59.8732 259.891C59.568 259.891 59.3612 259.982 59.2528 260.165C59.1443 260.345 59.09 260.686 59.09 261.188C59.09 261.686 59.1426 262.027 59.2477 262.21C59.3528 262.389 59.5579 262.479 59.863 262.479C60.1681 262.479 60.4766 262.454 60.7885 262.403L60.8038 262.871C60.4546 262.945 60.124 262.983 59.8121 262.983ZM62.5274 262.927V259.443H64.7242V259.937H63.0918V260.923H64.4191V261.411H63.0918V262.428H64.7242V262.927H62.5274ZM68.9168 260.089C68.9168 259.855 69.0032 259.671 69.1761 259.535C69.3524 259.399 69.5948 259.331 69.9033 259.331C70.2118 259.331 70.4491 259.401 70.6153 259.54C70.7814 259.676 70.8644 259.865 70.8644 260.11C70.8644 260.35 70.8102 260.54 70.7017 260.679C70.5932 260.818 70.4017 260.967 70.1271 261.127L70.7475 261.742C70.7712 261.677 70.7949 261.567 70.8187 261.411C70.8424 261.252 70.8577 261.12 70.8644 261.015L71.3984 261.025C71.3509 261.438 71.2679 261.786 71.1492 262.067L71.7543 262.622L71.4391 262.983L70.8644 262.484C70.7526 262.64 70.6034 262.762 70.4169 262.85C70.2305 262.939 70.0254 262.983 69.8016 262.983C69.3236 262.983 68.9846 262.893 68.7846 262.713C68.5845 262.533 68.4845 262.267 68.4845 261.915C68.4845 261.633 68.5439 261.416 68.6625 261.264C68.7812 261.108 68.9727 260.981 69.2372 260.882C69.1049 260.73 69.0185 260.601 68.9778 260.496C68.9371 260.391 68.9168 260.255 68.9168 260.089ZM69.7406 262.489C69.9033 262.489 70.0525 262.462 70.1881 262.408C70.3237 262.35 70.4237 262.272 70.4881 262.174L69.527 261.213C69.3575 261.277 69.2338 261.361 69.1558 261.462C69.0812 261.564 69.0439 261.7 69.0439 261.869C69.0439 262.283 69.2761 262.489 69.7406 262.489ZM69.4762 260.201C69.4762 260.367 69.5524 260.532 69.705 260.694L69.8169 260.811C69.9965 260.71 70.122 260.615 70.1932 260.527C70.2678 260.438 70.3051 260.325 70.3051 260.186C70.3051 259.928 70.1661 259.799 69.8881 259.799C69.6135 259.799 69.4762 259.933 69.4762 260.201ZM76.1532 261.686V262.927H75.5887V259.443H76.9109C77.6974 259.443 78.0906 259.813 78.0906 260.552C78.0906 261.047 77.9008 261.383 77.5211 261.559L78.0957 262.927H77.4753L76.9719 261.686H76.1532ZM77.5109 260.557C77.5109 260.14 77.3109 259.932 76.9109 259.932H76.1532V261.198H76.921C77.1244 261.198 77.2736 261.14 77.3685 261.025C77.4635 260.906 77.5109 260.75 77.5109 260.557ZM79.851 262.927V259.443H82.0478V259.937H80.4154V260.923H81.7427V261.411H80.4154V262.428H82.0478V262.927H79.851ZM84.8026 259.881C84.3721 259.881 84.1568 260.032 84.1568 260.333C84.1568 260.489 84.2077 260.601 84.3094 260.669C84.4111 260.733 84.6348 260.815 84.9806 260.913C85.3298 261.008 85.5756 261.123 85.718 261.259C85.8604 261.391 85.9316 261.601 85.9316 261.889C85.9316 262.256 85.8265 262.53 85.6163 262.713C85.4095 262.893 85.1264 262.983 84.767 262.983C84.4789 262.983 84.1602 262.949 83.811 262.881L83.628 262.845L83.6839 262.393C84.1416 262.454 84.4907 262.484 84.7315 262.484C85.1518 262.484 85.362 262.298 85.362 261.925C85.362 261.779 85.3146 261.672 85.2196 261.605C85.1247 261.533 84.9111 261.457 84.5789 261.376C84.2467 261.291 83.9992 261.176 83.8364 261.03C83.6737 260.884 83.5924 260.654 83.5924 260.338C83.5924 260.023 83.6941 259.786 83.8975 259.626C84.1043 259.464 84.389 259.382 84.7518 259.382C85.0128 259.382 85.3213 259.413 85.6773 259.474L85.8553 259.504L85.8095 259.962C85.3349 259.908 84.9993 259.881 84.8026 259.881ZM88.1994 261.813C88.1994 262.264 88.4367 262.489 88.9114 262.489C89.386 262.489 89.6233 262.264 89.6233 261.813V259.443H90.1928V261.803C90.1928 262.213 90.0844 262.513 89.8674 262.703C89.6538 262.889 89.3334 262.983 88.9063 262.983C88.4825 262.983 88.1638 262.889 87.9503 262.703C87.7367 262.513 87.6299 262.213 87.6299 261.803V259.443H88.1994V261.813ZM94.0393 262.927H92.0865V259.443H92.651V262.423H94.0393V262.927ZM94.8561 259.947V259.443H97.3987V259.947H96.4173V262.927H95.8477V259.947H94.8561ZM98.4786 262.927L99.338 259.443H100.462L101.326 262.927H100.757L100.569 262.179H99.2312L99.043 262.927H98.4786ZM99.7753 259.916L99.3431 261.681H100.457L100.03 259.916H99.7753ZM104.147 262.927H102.942V259.443H104.147C104.682 259.443 105.049 259.579 105.245 259.85C105.442 260.121 105.54 260.547 105.54 261.127C105.54 261.422 105.52 261.672 105.479 261.879C105.442 262.083 105.374 262.267 105.276 262.433C105.082 262.762 104.706 262.927 104.147 262.927ZM104.955 261.127C104.955 260.706 104.903 260.403 104.798 260.216C104.693 260.03 104.476 259.937 104.147 259.937H103.506V262.428H104.147C104.482 262.428 104.706 262.305 104.818 262.057C104.872 261.932 104.908 261.798 104.925 261.655C104.945 261.513 104.955 261.337 104.955 261.127ZM107.923 262.189C108.038 262.389 108.259 262.489 108.584 262.489C108.91 262.489 109.128 262.391 109.24 262.194C109.356 261.998 109.413 261.669 109.413 261.208C109.413 260.743 109.354 260.406 109.235 260.196C109.12 259.986 108.903 259.881 108.584 259.881C108.266 259.881 108.047 259.986 107.928 260.196C107.81 260.406 107.75 260.742 107.75 261.203C107.75 261.661 107.808 261.989 107.923 262.189ZM109.683 262.556C109.476 262.84 109.11 262.983 108.584 262.983C108.059 262.983 107.691 262.84 107.481 262.556C107.271 262.267 107.165 261.816 107.165 261.203C107.165 260.589 107.271 260.133 107.481 259.835C107.694 259.537 108.062 259.387 108.584 259.387C109.106 259.387 109.472 259.537 109.683 259.835C109.893 260.13 109.998 260.586 109.998 261.203C109.998 261.82 109.893 262.271 109.683 262.556ZM112.796 259.881C112.366 259.881 112.15 260.032 112.15 260.333C112.15 260.489 112.201 260.601 112.303 260.669C112.405 260.733 112.628 260.815 112.974 260.913C113.323 261.008 113.569 261.123 113.711 261.259C113.854 261.391 113.925 261.601 113.925 261.889C113.925 262.256 113.82 262.53 113.61 262.713C113.403 262.893 113.12 262.983 112.761 262.983C112.472 262.983 112.154 262.949 111.804 262.881L111.621 262.845L111.677 262.393C112.135 262.454 112.484 262.484 112.725 262.484C113.145 262.484 113.355 262.298 113.355 261.925C113.355 261.779 113.308 261.672 113.213 261.605C113.118 261.533 112.905 261.457 112.572 261.376C112.24 261.291 111.993 261.176 111.83 261.03C111.667 260.884 111.586 260.654 111.586 260.338C111.586 260.023 111.688 259.786 111.891 259.626C112.098 259.464 112.383 259.382 112.745 259.382C113.006 259.382 113.315 259.413 113.671 259.474L113.849 259.504L113.803 259.962C113.328 259.908 112.993 259.881 112.796 259.881Z" fill="#000D3D"/>
<line x1="124.123" y1="261.152" x2="240.86" y2="261.152" stroke="#000D3D" stroke-width="0.591062"/>
<defs>
<linearGradient id="paint0_linear_658_186" x1="-22.1067" y1="193.433" x2="291.071" y2="-55.6351" gradientUnits="userSpaceOnUse">
<stop stop-color="#D9D9D9"/>
<stop offset="1" stop-color="white" stop-opacity="0"/>
</linearGradient>
<clipPath id="clip0_658_186">
<rect width="111.221" height="92" fill="white" transform="translate(73.9553 60)"/>
</clipPath>
</defs>
</svg>
