<svg width="261" height="281" viewBox="0 0 261 281" fill="none" xmlns="http://www.w3.org/2000/svg">
<path d="M20 0.368164H240.067C250.91 0.368164 259.699 9.15779 259.699 20V179.905H0.368164V20C0.368172 9.1578 9.1578 0.368164 20 0.368164Z" fill="#1440FF"/>
<path d="M20 0.368164H240.067C250.91 0.368164 259.699 9.15779 259.699 20V179.905H0.368164V20C0.368172 9.1578 9.1578 0.368164 20 0.368164Z" stroke="url(#paint0_linear_658_310)" stroke-width="0.736889"/>
<path d="M209.871 26.6875H208.388V22.4002H209.871C210.531 22.4002 210.981 22.5671 211.223 22.9009C211.465 23.2348 211.586 23.7584 211.586 24.4719C211.586 24.8349 211.561 25.1437 211.511 25.3982C211.465 25.6485 211.382 25.8759 211.261 26.0804C211.023 26.4851 210.56 26.6875 209.871 26.6875ZM210.866 24.4719C210.866 23.9545 210.802 23.5811 210.672 23.3516C210.543 23.1221 210.276 23.0073 209.871 23.0073H209.083V26.0741H209.871C210.284 26.0741 210.56 25.9218 210.697 25.6173C210.764 25.4629 210.808 25.2981 210.829 25.1228C210.854 24.9476 210.866 24.7306 210.866 24.4719ZM213.774 26.6875V22.4002H216.478V23.0073H214.469V24.2215H216.103V24.8224H214.469V26.0741H216.478V26.6875H213.774ZM219.869 22.9385C219.339 22.9385 219.074 23.1242 219.074 23.4955C219.074 23.6875 219.137 23.8252 219.262 23.9086C219.387 23.9879 219.662 24.088 220.088 24.209C220.518 24.3259 220.82 24.4677 220.995 24.6346C221.171 24.7974 221.258 25.056 221.258 25.4107C221.258 25.8613 221.129 26.1993 220.87 26.4246C220.616 26.6458 220.267 26.7563 219.825 26.7563C219.47 26.7563 219.078 26.7146 218.648 26.6312L218.423 26.5874L218.492 26.0303C219.055 26.1054 219.485 26.143 219.781 26.143C220.299 26.143 220.557 25.9135 220.557 25.4545C220.557 25.2751 220.499 25.1437 220.382 25.0602C220.265 24.9726 220.002 24.8787 219.593 24.7786C219.185 24.6743 218.88 24.5324 218.68 24.353C218.479 24.1736 218.379 23.8898 218.379 23.5018C218.379 23.1137 218.504 22.8217 218.755 22.6256C219.009 22.4253 219.36 22.3251 219.806 22.3251C220.128 22.3251 220.507 22.3627 220.945 22.4378L221.164 22.4754L221.108 23.0386C220.524 22.9719 220.111 22.9385 219.869 22.9385ZM224.869 26.6875H223.386V22.4002H224.869C225.529 22.4002 225.979 22.5671 226.221 22.9009C226.463 23.2348 226.584 23.7584 226.584 24.4719C226.584 24.8349 226.559 25.1437 226.509 25.3982C226.463 25.6485 226.38 25.8759 226.259 26.0804C226.021 26.4851 225.558 26.6875 224.869 26.6875ZM225.865 24.4719C225.865 23.9545 225.8 23.5811 225.67 23.3516C225.541 23.1221 225.274 23.0073 224.869 23.0073H224.081V26.0741H224.869C225.282 26.0741 225.558 25.9218 225.696 25.6173C225.762 25.4629 225.806 25.2981 225.827 25.1228C225.852 24.9476 225.865 24.7306 225.865 24.4719ZM228.772 26.6875V22.4002H231.476V23.0073H229.467V24.2215H231.101V24.8224H229.467V26.0741H231.476V26.6875H228.772Z" fill="#F3F3F3"/>
<path d="M210.185 41H203.978V39.6126L206.359 37.1592C207.079 36.4193 207.586 35.84 207.878 35.4214C208.17 35.0027 208.316 34.5451 208.316 34.0486C208.316 33.5423 208.175 33.1821 207.892 32.9679C207.61 32.7537 207.147 32.6466 206.505 32.6466C205.901 32.6466 205.234 32.7148 204.504 32.8511L204.139 32.9095L204.037 31.6244C204.981 31.342 205.96 31.2009 206.972 31.2009C208.988 31.2009 209.995 32.0966 209.995 33.888C209.995 34.5889 209.839 35.1974 209.528 35.7134C209.226 36.2294 208.681 36.8525 207.892 37.5827L205.833 39.5834H210.185V41ZM212.515 32.3838C213.129 31.5952 214.044 31.2009 215.261 31.2009C216.478 31.2009 217.388 31.5903 217.992 32.3692C218.595 33.148 218.897 34.438 218.897 36.2392C218.897 38.0306 218.591 39.3011 217.977 40.0508C217.374 40.7907 216.463 41.1606 215.246 41.1606C214.039 41.1606 213.129 40.7907 212.515 40.0508C211.912 39.3108 211.61 38.0452 211.61 36.2538C211.61 34.4526 211.912 33.1626 212.515 32.3838ZM216.765 33.4206C216.463 32.8852 215.962 32.6174 215.261 32.6174C214.56 32.6174 214.054 32.8852 213.742 33.4206C213.44 33.9464 213.289 34.8761 213.289 36.21C213.289 37.5438 213.445 38.4687 213.757 38.9847C214.078 39.4909 214.579 39.7441 215.261 39.7441C215.952 39.7441 216.449 39.4909 216.75 38.9847C217.062 38.4687 217.218 37.5438 217.218 36.21C217.218 34.8761 217.067 33.9464 216.765 33.4206ZM226.529 41H220.322V39.6126L222.703 37.1592C223.423 36.4193 223.929 35.84 224.221 35.4214C224.513 35.0027 224.659 34.5451 224.659 34.0486C224.659 33.5423 224.518 33.1821 224.236 32.9679C223.954 32.7537 223.491 32.6466 222.849 32.6466C222.245 32.6466 221.578 32.7148 220.848 32.8511L220.483 32.9095L220.381 31.6244C221.325 31.342 222.303 31.2009 223.316 31.2009C225.331 31.2009 226.339 32.0966 226.339 33.888C226.339 34.5889 226.183 35.1974 225.872 35.7134C225.57 36.2294 225.025 36.8525 224.236 37.5827L222.177 39.5834H226.529V41ZM234.584 31.3615V32.7927H230.115L229.867 35.3337C230.529 35.0319 231.181 34.881 231.824 34.881C233.888 34.881 234.92 35.8449 234.92 37.7726C234.92 38.863 234.632 39.7003 234.058 40.2844C233.493 40.8686 232.69 41.1606 231.648 41.1606C231.21 41.1606 230.714 41.1168 230.159 41.0292C229.604 40.9513 229.161 40.8734 228.83 40.7955L228.333 40.6641L228.509 39.4374C229.657 39.6321 230.641 39.7295 231.459 39.7295C232.023 39.7295 232.461 39.5737 232.773 39.2622C233.084 38.9506 233.24 38.5076 233.24 37.9332C233.24 37.3588 233.104 36.945 232.831 36.6919C232.559 36.4388 232.203 36.3122 231.765 36.3122C230.977 36.3122 230.334 36.4095 229.838 36.6043L229.575 36.7065L228.552 36.4874L228.815 31.3615H234.584Z" fill="#F3F3F3"/>
<path d="M45.3032 28.1675C46.9458 28.1675 47.9071 30.016 46.9658 31.3609L46.3723 32.2102L42.1277 38.2734H37.1957L40.9686 32.8857C41.1685 32.5999 40.9646 32.2102 40.6169 32.2102H35.3431C34.6557 32.2102 34.0122 32.546 33.6185 33.1075L30.0014 38.2734H25.0674L29.314 32.2102L29.7197 31.6307L30.3332 30.7534C31.4683 29.1327 33.3228 28.1675 35.3012 28.1675H45.3052H45.3032Z" fill="#E6EAFF"/>
<path d="M64.2478 28.1675L61.418 32.2102H53.8481C53.2926 32.2102 52.771 32.482 52.4532 32.9357L48.7162 38.2734H43.7842L48.0308 32.2102L48.4365 31.6307L49.1858 30.5596C50.237 29.0608 51.9516 28.1675 53.7822 28.1675H64.2498H64.2478Z" fill="#E6EAFF"/>
<path d="M68.0669 22.7275L65.2372 26.7703H33.5586L34.5778 25.3135C35.7149 23.6928 37.5674 22.7275 39.5458 22.7275H68.0649H68.0669Z" fill="#E6EAFF"/>
<g clip-path="url(#clip0_658_310)">
<path d="M229.526 99.5096C233.776 99.5096 236 97.5947 236 95.0427C236 88.569 227.412 90.7096 227.412 88.1077C227.412 87.3988 228.117 86.8936 229.107 86.8936C230.229 86.8936 231.022 87.3788 231.331 88.4611L235.603 87.6205C234.854 84.9128 232.454 83.6567 229.085 83.6567C225.143 83.6567 222.919 85.5937 222.919 88.1077C222.919 94.4536 231.507 92.3869 231.507 94.9588C231.507 95.7696 230.78 96.2728 229.526 96.2728C228.272 96.2728 227.236 95.7915 226.753 94.4976L222.569 95.3303C223.296 98.2337 226.269 99.5096 229.528 99.5096M216.954 99.29V87.7303H221.513V83.8764H207.992V87.7303H212.551V99.29H216.954ZM198.238 87.289H200.33C201.541 87.289 202.311 87.9499 202.311 89.1161C202.311 90.2823 201.541 90.9212 200.33 90.9212H198.238V87.287V87.289ZM198.238 99.29V94.1601H200.087L202.377 99.29H207.266L204.182 93.4552C205.79 92.6405 206.714 91.1429 206.714 89.1181C206.714 85.7494 204.446 83.8784 200.77 83.8784H193.835V99.292H198.238V99.29ZM184.08 87.5106H184.3L185.885 93.2356H182.495L184.08 87.5106ZM192.183 99.29L187.119 83.8764H181.372L176.309 99.29H180.801L181.572 96.5383H186.812L187.583 99.29H192.185H192.183ZM167.566 87.3988H169.481C170.759 87.3988 171.64 88.0378 171.64 89.2699C171.64 90.5019 170.759 91.1409 169.481 91.1409H167.566V87.3968V87.3988ZM167.566 99.29V94.5555H169.857C173.755 94.5555 176.045 92.5746 176.045 89.2718C176.045 85.9691 173.755 83.8764 169.857 83.8764H163.163V99.29H167.566ZM153.407 87.5106H153.626L155.212 93.2356H151.821L153.407 87.5106ZM161.51 99.29L156.446 83.8764H150.699L145.635 99.29H150.128L150.899 96.5383H156.138L156.909 99.29H161.512H161.51ZM135.859 87.289H137.951C139.161 87.289 139.932 87.9499 139.932 89.1161C139.932 90.2823 139.161 90.9212 137.951 90.9212H135.859V87.287V87.289ZM135.859 99.29V94.1601H137.708L139.998 99.29H144.886L141.803 93.4552C143.411 92.6405 144.335 91.1429 144.335 89.1181C144.335 85.7494 142.067 83.8784 138.391 83.8784H131.456V99.292H135.859V99.29ZM120.423 92.8602H123.087C124.143 92.8602 124.848 93.4552 124.848 94.4676C124.848 95.48 124.143 96.0751 123.087 96.0751H120.423V92.8602ZM120.423 87.0913H122.669C123.682 87.0913 124.299 87.6424 124.299 88.5889C124.299 89.5354 123.682 90.0866 122.669 90.0866H120.423V87.0913ZM123.55 99.29C127.602 99.29 129.253 97.7045 129.253 95.0627C129.253 93.1916 128.219 92.0455 126.545 91.5183V91.2986C127.779 90.7475 128.594 89.6473 128.594 87.9519C128.594 85.1344 126.567 83.8784 123.199 83.8784H116.02V99.292H123.55V99.29ZM106.265 87.5106H106.485L108.071 93.2356H104.68L106.265 87.5106ZM114.367 99.29L109.303 83.8764H103.556L98.4917 99.29H102.985L103.755 96.5383H108.995L109.766 99.29H114.369H114.367Z" fill="#E6EAFF"/>
<path d="M88.6512 131.874L65.3262 80H48.3251L25 131.874H42.5682L56.7917 99.6409L70.6857 131.874H88.6512Z" fill="#E6EAFF"/>
<path d="M88.6518 131.874L65.3268 80H48.3257L70.6863 131.874H88.6518Z" fill="#E6EAFF"/>
<path d="M236 116.983V115.523H229.54V104.211H227.899V116.983H236ZM215.91 105.633H216.002L218.466 112.694H213.448L215.912 105.633H215.91ZM221.713 116.983L217.114 104.211H214.851L210.271 116.983H211.95L212.972 114.063H218.939L219.961 116.983H221.713ZM204.087 116.983V104.211H202.445V116.983H204.087ZM190.584 117.165C192.902 117.165 194.891 116.07 195.748 113.442L194.196 112.877C193.485 114.884 192.261 115.705 190.584 115.705C188.14 115.705 186.514 113.788 186.514 110.595C186.514 107.402 188.138 105.485 190.584 105.485C192.225 105.485 193.431 106.342 194.106 108.313L195.658 107.747C194.837 105.156 192.866 104.025 190.586 104.025C187.247 104.025 184.875 106.671 184.875 110.595C184.875 114.519 187.247 117.165 190.586 117.165H190.584ZM171.005 105.669H174.216C175.821 105.669 176.844 106.581 176.844 108.095C176.844 109.609 175.821 110.503 174.216 110.503H171.005V105.667V105.669ZM171.005 116.983V111.893H174.162L176.808 116.983H178.669L175.785 111.709C177.465 111.254 178.485 109.976 178.485 108.097C178.485 105.653 176.844 104.211 174.288 104.211H169.361V116.983H171.003H171.005ZM162.482 116.983V115.523H155.639V111.144H161.752V109.684H155.639V105.671H162.482V104.211H153.998V116.983H162.482ZM135.313 116.983V106.072H135.405L139.291 116.983H141.098L144.984 106.072H145.076V116.983H146.717V104.211H144.107L140.222 115.14L136.336 104.211H133.764V116.983H135.315H135.313ZM121.282 115.705C118.837 115.705 117.212 113.788 117.212 110.595C117.212 107.402 118.835 105.485 121.282 105.485C123.728 105.485 125.333 107.4 125.333 110.595C125.333 113.79 123.728 115.705 121.282 115.705ZM121.282 117.165C124.62 117.165 126.975 114.537 126.975 110.595C126.975 106.653 124.62 104.025 121.282 104.025C117.943 104.025 115.571 106.671 115.571 110.595C115.571 114.519 117.943 117.165 121.282 117.165ZM104.203 117.165C106.519 117.165 108.51 116.07 109.366 113.442L107.815 112.877C107.104 114.884 105.88 115.705 104.203 115.705C101.758 115.705 100.133 113.788 100.133 110.595C100.133 107.402 101.756 105.485 104.203 105.485C105.844 105.485 107.05 106.342 107.725 108.313L109.277 107.747C108.456 105.156 106.485 104.025 104.205 104.025C100.866 104.025 98.4937 106.671 98.4937 110.595C98.4937 114.519 100.866 117.165 104.205 117.165H104.203Z" fill="#E6EAFF"/>
<path d="M234.219 127.57V122.762H236V122.352H231.99V122.762H233.771V127.57H234.219ZM231.126 127.57V122.352H230.678V127.57H231.126ZM227.659 127.644C228.434 127.644 229.255 127.248 229.664 126.19L229.247 126.026C228.925 126.907 228.344 127.235 227.659 127.235C226.593 127.235 225.856 126.37 225.856 124.96C225.856 123.55 226.595 122.686 227.659 122.686C228.352 122.686 228.903 123.043 229.211 123.894L229.628 123.73C229.249 122.686 228.442 122.276 227.659 122.276C226.303 122.276 225.409 123.381 225.409 124.96C225.409 126.54 226.303 127.644 227.659 127.644ZM222.633 122.746H222.663L223.819 125.891H221.485L222.633 122.746ZM224.907 127.57L222.968 122.352H222.341L220.411 127.57H220.872L221.333 126.302H223.965L224.428 127.57H224.905H224.907ZM216.654 122.762H218.168C218.839 122.762 219.3 123.179 219.3 123.894C219.3 124.609 218.837 124.998 218.168 124.998H216.654V122.762ZM216.654 127.57V125.401H218.198L219.316 127.57H219.823L218.645 125.355C219.308 125.2 219.75 124.701 219.75 123.902C219.75 122.925 219.109 122.352 218.192 122.352H216.209V127.57H216.656H216.654ZM211.87 125.124H213.503C214.248 125.124 214.704 125.489 214.704 126.144C214.704 126.799 214.248 127.159 213.503 127.159H211.87V125.124ZM211.87 122.762H213.368C214.107 122.762 214.5 123.105 214.5 123.738C214.5 124.371 214.105 124.715 213.368 124.715H211.87V122.762ZM213.501 127.57C214.552 127.57 215.149 127.055 215.149 126.184C215.149 125.521 214.805 125.088 214.224 124.902V124.88C214.634 124.717 214.925 124.343 214.925 123.71C214.925 122.764 214.254 122.354 213.338 122.354H211.423V127.572H213.503L213.501 127.57ZM208.344 122.746H208.374L209.53 125.891H207.195L208.344 122.746ZM210.618 127.57L208.679 122.352H208.052L206.121 127.57H206.582L207.044 126.302H209.676L210.139 127.57H210.616H210.618ZM200.726 127.241C200.159 127.241 199.787 126.919 199.787 126.406C199.787 125.847 200.197 125.459 200.668 125.086L201.988 126.614C201.63 127.001 201.243 127.241 200.728 127.241H200.726ZM200.219 123.403C200.219 122.963 200.516 122.68 200.919 122.68C201.277 122.68 201.59 122.925 201.59 123.351C201.59 123.836 201.195 124.177 200.74 124.521C200.426 124.141 200.219 123.798 200.219 123.403ZM203.312 127.159C203.05 127.159 202.908 127.039 202.774 126.883L202.521 126.592C202.641 126.428 202.766 126.256 202.886 126.07L203.429 125.244L203.086 125.02L202.557 125.833C202.453 125.988 202.355 126.138 202.251 126.28L200.999 124.826C201.52 124.423 202.02 123.992 202.02 123.351C202.02 122.71 201.564 122.276 200.917 122.276C200.27 122.276 199.785 122.732 199.785 123.403C199.785 123.858 200.009 124.289 200.404 124.782C199.859 125.192 199.338 125.663 199.338 126.408C199.338 127.153 199.897 127.646 200.71 127.646C201.343 127.646 201.82 127.37 202.245 126.915L202.447 127.153C202.701 127.444 202.916 127.57 203.304 127.57H203.609V127.161H203.312V127.159ZM193.449 122.762H194.769C195.604 122.762 196.097 123.187 196.097 123.924C196.097 124.661 195.606 125.072 194.769 125.072H193.449V122.762ZM193.449 127.57V125.483H194.791C195.857 125.483 196.542 124.902 196.542 123.926C196.542 122.949 195.857 122.352 194.791 122.352H193.002V127.57H193.449ZM189.715 127.235C188.657 127.235 187.912 126.37 187.912 124.96C187.912 123.55 188.657 122.686 189.715 122.686C190.773 122.686 191.504 123.55 191.504 124.96C191.504 126.37 190.765 127.235 189.715 127.235ZM189.715 127.644C191.065 127.644 191.952 126.548 191.952 124.96C191.952 123.373 191.065 122.276 189.715 122.276C188.365 122.276 187.465 123.381 187.465 124.96C187.465 126.54 188.367 127.644 189.715 127.644ZM184.697 127.644C185.472 127.644 186.293 127.248 186.702 126.19L186.285 126.026C185.963 126.907 185.382 127.235 184.697 127.235C183.631 127.235 182.894 126.37 182.894 124.96C182.894 123.55 183.633 122.686 184.697 122.686C185.39 122.686 185.941 123.043 186.247 123.894L186.664 123.73C186.285 122.686 185.478 122.276 184.695 122.276C183.337 122.276 182.445 123.381 182.445 124.96C182.445 126.54 183.339 127.644 184.695 127.644H184.697ZM179.673 122.746H179.703L180.859 125.891H178.525L179.673 122.746ZM181.947 127.57L180.009 122.352H179.381L177.451 127.57H177.912L178.373 126.302H181.005L181.468 127.57H181.945H181.947ZM173.695 122.762H175.208C175.879 122.762 176.34 123.179 176.34 123.894C176.34 124.609 175.877 124.998 175.208 124.998H173.695V122.762ZM173.695 127.57V125.401H175.238L176.356 127.57H176.863L175.685 125.355C176.348 125.2 176.79 124.701 176.79 123.902C176.79 122.925 176.149 122.352 175.232 122.352H173.249V127.57H173.696H173.695ZM168.908 125.124H170.541C171.286 125.124 171.742 125.489 171.742 126.144C171.742 126.799 171.286 127.159 170.541 127.159H168.908V125.124ZM168.908 122.762H170.406C171.145 122.762 171.538 123.105 171.538 123.738C171.538 124.371 171.143 124.715 170.406 124.715H168.908V122.762ZM170.541 127.57C171.592 127.57 172.189 127.055 172.189 126.184C172.189 125.521 171.845 125.088 171.264 124.902V124.88C171.674 124.717 171.965 124.343 171.965 123.71C171.965 122.764 171.294 122.354 170.378 122.354H168.463V127.572H170.543L170.541 127.57ZM165.382 122.746H165.412L166.568 125.891H164.233L165.382 122.746ZM167.656 127.57L165.717 122.352H165.09L163.159 127.57H163.62L164.082 126.302H166.714L167.177 127.57H167.654H167.656Z" fill="#E6EAFF"/>
<path d="M161.51 124.116H98.4917V124.961H161.51V124.116Z" fill="#E6EAFF"/>
<path d="M161.51 124.961H98.4917V125.806H161.51V124.961Z" fill="#E6EAFF"/>
</g>
<path d="M0 180.274H260.067V260.755C260.067 271.8 251.113 280.755 240.067 280.755H20C8.9543 280.755 0 271.8 0 260.755V180.274Z" fill="white"/>
<path d="M26.7943 211.415H24.1726V216.05H20.9422V200.133H26.7943C30.5709 200.133 32.4591 201.974 32.4591 205.657C32.4591 207.514 31.9754 208.942 31.0078 209.941C30.0559 210.924 28.6514 211.415 26.7943 211.415ZM24.1726 208.653H26.7709C28.3783 208.653 29.182 207.654 29.182 205.657C29.182 204.674 28.9869 203.972 28.5967 203.55C28.2066 203.113 27.598 202.895 26.7709 202.895H24.1726V208.653ZM43.2969 207.998V212.867C43.3281 213.241 43.3905 213.507 43.4842 213.663C43.5778 213.803 43.7729 213.905 44.0694 213.967L43.9757 216.331C43.1798 216.331 42.54 216.277 42.0562 216.167C41.5881 216.058 41.1121 215.84 40.6283 215.512C39.5047 216.058 38.3577 216.331 37.1873 216.331C34.7684 216.331 33.559 215.052 33.559 212.492C33.559 211.244 33.8945 210.362 34.5655 209.847C35.2366 209.316 36.2665 209.004 37.6555 208.911L40.1602 208.723V207.998C40.1602 207.514 40.0509 207.186 39.8324 207.015C39.614 206.827 39.2628 206.734 38.7791 206.734L34.3783 206.921L34.2846 204.744C35.9544 204.291 37.5384 204.065 39.0365 204.065C40.5503 204.065 41.6349 204.377 42.2903 205.002C42.9614 205.626 43.2969 206.624 43.2969 207.998ZM38.03 211.088C37.1561 211.166 36.7191 211.634 36.7191 212.492C36.7191 213.351 37.1015 213.78 37.8661 213.78C38.4591 213.78 39.1068 213.686 39.809 213.499L40.1602 213.405V210.9L38.03 211.088ZM46.2871 216.05V204.346H49.4005V205.587C50.7113 204.806 51.9598 204.299 53.1458 204.065V207.225C51.8818 207.491 50.7972 207.764 49.892 208.045L49.4239 208.208V216.05H46.2871ZM59.3741 204.065C60.1856 204.065 61.2234 204.19 62.4874 204.44L63.1194 204.58L63.0258 207.061C61.793 206.937 60.88 206.874 60.287 206.874C59.2102 206.874 58.4924 207.108 58.1335 207.576C57.7901 208.029 57.6185 208.895 57.6185 210.175C57.6185 211.454 57.7901 212.336 58.1335 212.82C58.4924 213.288 59.218 213.522 60.3104 213.522L63.0258 213.335L63.1194 215.84C61.4496 216.167 60.1778 216.331 59.3039 216.331C57.5716 216.331 56.3232 215.847 55.5585 214.88C54.8095 213.897 54.4349 212.328 54.4349 210.175C54.4349 208.021 54.8251 206.468 55.6053 205.516C56.3856 204.549 57.6419 204.065 59.3741 204.065ZM67.9271 211.532C67.9427 212.25 68.13 212.773 68.4889 213.101C68.8635 213.413 69.3941 213.569 70.0807 213.569C71.532 213.569 72.8273 213.522 73.9665 213.429L74.622 213.358L74.6688 215.676C72.8741 216.113 71.2511 216.331 69.7998 216.331C68.0364 216.331 66.7567 215.863 65.9608 214.927C65.1649 213.99 64.767 212.469 64.767 210.362C64.767 206.164 66.4914 204.065 69.9403 204.065C73.3423 204.065 75.0433 205.829 75.0433 209.355L74.8092 211.532H67.9271ZM71.9534 209.145C71.9534 208.208 71.8051 207.561 71.5086 207.202C71.2121 206.827 70.6893 206.64 69.9403 206.64C69.2068 206.64 68.684 206.835 68.3719 207.225C68.0754 207.6 67.9193 208.24 67.9037 209.145H71.9534ZM77.285 216.05V204.346H80.4218V216.05H77.285ZM77.285 202.848V199.664H80.4218V202.848H77.285ZM83.32 216.05V204.346H86.4333V205.587C87.7442 204.806 88.9927 204.299 90.1787 204.065V207.225C88.9146 207.491 87.83 207.764 86.9249 208.045L86.4568 208.208V216.05H83.32ZM92.6616 205.68C93.4887 204.604 94.8698 204.065 96.8049 204.065C98.74 204.065 100.121 204.604 100.948 205.68C101.775 206.742 102.189 208.24 102.189 210.175C102.189 214.279 100.394 216.331 96.8049 216.331C93.2156 216.331 91.421 214.279 91.421 210.175C91.421 208.24 91.8345 206.742 92.6616 205.68ZM95.0727 212.82C95.4004 213.382 95.9778 213.663 96.8049 213.663C97.632 213.663 98.2016 213.382 98.5137 212.82C98.8415 212.258 99.0053 211.376 99.0053 210.175C99.0053 208.973 98.8415 208.099 98.5137 207.553C98.2016 207.007 97.632 206.734 96.8049 206.734C95.9778 206.734 95.4004 207.007 95.0727 207.553C94.7606 208.099 94.6045 208.973 94.6045 210.175C94.6045 211.376 94.7606 212.258 95.0727 212.82ZM30.0949 240.05V233.449H24.1726V240.05H20.9422V224.133H24.1726V230.64H30.0949V224.133H33.3253V240.05H30.0949ZM36.998 229.68C37.8251 228.604 39.2062 228.065 41.1413 228.065C43.0764 228.065 44.4575 228.604 45.2846 229.68C46.1117 230.742 46.5252 232.24 46.5252 234.175C46.5252 238.279 44.7306 240.331 41.1413 240.331C37.552 240.331 35.7574 238.279 35.7574 234.175C35.7574 232.24 36.1709 230.742 36.998 229.68ZM39.4091 236.82C39.7368 237.382 40.3142 237.663 41.1413 237.663C41.9684 237.663 42.538 237.382 42.8501 236.82C43.1778 236.258 43.3417 235.376 43.3417 234.175C43.3417 232.973 43.1778 232.099 42.8501 231.553C42.538 231.007 41.9684 230.734 41.1413 230.734C40.3142 230.734 39.7368 231.007 39.4091 231.553C39.097 232.099 38.9409 232.973 38.9409 234.175C38.9409 235.376 39.097 236.258 39.4091 236.82ZM51.9613 240.05H48.8246V228.346H51.9379V229.002C53.0147 228.377 53.9354 228.065 54.7001 228.065C55.9641 228.065 56.9395 228.432 57.6261 229.165C59.0619 228.432 60.3727 228.065 61.5588 228.065C63.1037 228.065 64.1727 228.518 64.7657 229.423C65.3743 230.312 65.6787 231.74 65.6787 233.707V240.05H62.5419V233.8C62.5419 232.801 62.4327 232.068 62.2142 231.6C61.9957 231.116 61.5588 230.874 60.9033 230.874C60.4039 230.874 59.7953 230.983 59.0775 231.202L58.7263 231.319C58.7888 232.489 58.82 233.379 58.82 233.988V240.05H55.6832V234.034C55.6832 232.88 55.5818 232.068 55.3789 231.6C55.1761 231.116 54.7313 230.874 54.0447 230.874C53.436 230.874 52.8352 230.983 52.2422 231.202L51.9613 231.296V240.05ZM69.0932 229.68C69.9203 228.604 71.3014 228.065 73.2365 228.065C75.1716 228.065 76.5527 228.604 77.3798 229.68C78.2069 230.742 78.6204 232.24 78.6204 234.175C78.6204 238.279 76.8258 240.331 73.2365 240.331C69.6472 240.331 67.8525 238.279 67.8525 234.175C67.8525 232.24 68.2661 230.742 69.0932 229.68ZM71.5042 236.82C71.832 237.382 72.4094 237.663 73.2365 237.663C74.0636 237.663 74.6332 237.382 74.9453 236.82C75.273 236.258 75.4369 235.376 75.4369 234.175C75.4369 232.973 75.273 232.099 74.9453 231.553C74.6332 231.007 74.0636 230.734 73.2365 230.734C72.4094 230.734 71.832 231.007 71.5042 231.553C71.1921 232.099 71.0361 232.973 71.0361 234.175C71.0361 235.376 71.1921 236.258 71.5042 236.82ZM81.0602 240.05V223.664H84.1969V240.05H81.0602ZM87.8611 229.68C88.6882 228.604 90.0693 228.065 92.0044 228.065C93.9395 228.065 95.3206 228.604 96.1477 229.68C96.9748 230.742 97.3883 232.24 97.3883 234.175C97.3883 238.279 95.5937 240.331 92.0044 240.331C88.4151 240.331 86.6204 238.279 86.6204 234.175C86.6204 232.24 87.034 230.742 87.8611 229.68ZM90.2721 236.82C90.5999 237.382 91.1773 237.663 92.0044 237.663C92.8315 237.663 93.4011 237.382 93.7132 236.82C94.0409 236.258 94.2048 235.376 94.2048 234.175C94.2048 232.973 94.0409 232.099 93.7132 231.553C93.4011 231.007 92.8315 230.734 92.0044 230.734C91.1773 230.734 90.5999 231.007 90.2721 231.553C89.96 232.099 89.804 232.973 89.804 234.175C89.804 235.376 89.96 236.258 90.2721 236.82ZM110.292 241.502C110.292 242.844 109.777 243.835 108.747 244.474C107.717 245.114 106.32 245.434 104.557 245.434C102.809 245.434 101.459 245.2 100.507 244.732C99.5706 244.264 99.1024 243.413 99.1024 242.18C99.1024 241.197 99.6642 240.269 100.788 239.395C100.21 239.005 99.9217 238.412 99.9217 237.616C99.9217 237.304 100.156 236.789 100.624 236.071L100.835 235.743C99.7735 234.978 99.2429 233.855 99.2429 232.372C99.2429 230.874 99.6876 229.79 100.577 229.119C101.482 228.448 102.676 228.112 104.159 228.112C104.83 228.112 105.493 228.19 106.148 228.346L106.523 228.416L110.292 228.299V230.804L108.536 230.664C108.879 231.194 109.051 231.725 109.051 232.255C109.051 233.816 108.653 234.893 107.857 235.486C107.061 236.079 105.813 236.375 104.112 236.375C103.753 236.375 103.433 236.344 103.152 236.282C102.996 236.687 102.918 237.023 102.918 237.288C102.918 237.538 103.051 237.709 103.316 237.803C103.581 237.897 104.205 237.951 105.189 237.967C107.155 237.983 108.497 238.248 109.215 238.763C109.933 239.262 110.292 240.175 110.292 241.502ZM102.192 241.853C102.192 242.524 103.012 242.859 104.65 242.859C106.304 242.859 107.132 242.469 107.132 241.689C107.132 241.268 106.991 240.994 106.71 240.87C106.429 240.76 105.836 240.698 104.931 240.682L102.824 240.518C102.403 240.94 102.192 241.385 102.192 241.853ZM102.38 232.279C102.38 233.418 102.973 233.988 104.159 233.988C105.36 233.988 105.961 233.418 105.961 232.279C105.961 231.124 105.36 230.546 104.159 230.546C102.973 230.546 102.38 231.124 102.38 232.279ZM121.157 231.998V236.867C121.189 237.241 121.251 237.507 121.345 237.663C121.438 237.803 121.633 237.905 121.93 237.967L121.836 240.331C121.04 240.331 120.401 240.277 119.917 240.167C119.449 240.058 118.973 239.84 118.489 239.512C117.365 240.058 116.218 240.331 115.048 240.331C112.629 240.331 111.419 239.052 111.419 236.492C111.419 235.244 111.755 234.362 112.426 233.847C113.097 233.316 114.127 233.004 115.516 232.911L118.021 232.723V231.998C118.021 231.514 117.911 231.186 117.693 231.015C117.474 230.827 117.123 230.734 116.64 230.734L112.239 230.921L112.145 228.744C113.815 228.291 115.399 228.065 116.897 228.065C118.411 228.065 119.495 228.377 120.151 229.002C120.822 229.626 121.157 230.624 121.157 231.998ZM115.89 235.088C115.017 235.166 114.58 235.634 114.58 236.492C114.58 237.351 114.962 237.78 115.727 237.78C116.32 237.78 116.967 237.686 117.67 237.499L118.021 237.405V234.9L115.89 235.088ZM134.096 223.664V240.05H130.983V239.559C129.891 240.074 128.946 240.331 128.15 240.331C126.449 240.331 125.263 239.84 124.592 238.856C123.921 237.873 123.586 236.321 123.586 234.198C123.586 232.06 123.984 230.507 124.78 229.54C125.591 228.557 126.808 228.065 128.431 228.065C128.931 228.065 129.625 228.143 130.515 228.299L130.96 228.393V223.664H134.096ZM130.632 237.241L130.96 237.171V231.015C130.101 230.859 129.337 230.781 128.665 230.781C127.401 230.781 126.769 231.904 126.769 234.151C126.769 235.369 126.91 236.235 127.191 236.75C127.472 237.265 127.932 237.522 128.572 237.522C129.227 237.522 129.914 237.429 130.632 237.241ZM137.627 229.68C138.454 228.604 139.835 228.065 141.77 228.065C143.705 228.065 145.086 228.604 145.913 229.68C146.741 230.742 147.154 232.24 147.154 234.175C147.154 238.279 145.359 240.331 141.77 240.331C138.181 240.331 136.386 238.279 136.386 234.175C136.386 232.24 136.8 230.742 137.627 229.68ZM140.038 236.82C140.366 237.382 140.943 237.663 141.77 237.663C142.597 237.663 143.167 237.382 143.479 236.82C143.807 236.258 143.971 235.376 143.971 234.175C143.971 232.973 143.807 232.099 143.479 231.553C143.167 231.007 142.597 230.734 141.77 230.734C140.943 230.734 140.366 231.007 140.038 231.553C139.726 232.099 139.57 232.973 139.57 234.175C139.57 235.376 139.726 236.258 140.038 236.82Z" fill="#00020A"/>
<path d="M20.8881 261.843H20.1762V262.926H19.6117V259.443H20.8881C21.678 259.443 22.073 259.833 22.073 260.612C22.073 261.013 21.9729 261.318 21.7729 261.528C21.5763 261.738 21.2814 261.843 20.8881 261.843ZM20.1762 261.355H20.883C21.2898 261.355 21.4932 261.107 21.4932 260.612C21.4932 260.375 21.4441 260.202 21.3458 260.094C21.2474 259.985 21.0932 259.931 20.883 259.931H20.1762V261.355ZM23.7349 262.926V259.443H25.9317V259.936H24.2994V260.923H25.6266V261.411H24.2994V262.428H25.9317V262.926H23.7349ZM28.2289 261.685V262.926H27.6645V259.443H28.9866C29.7731 259.443 30.1664 259.812 30.1664 260.551C30.1664 261.046 29.9765 261.382 29.5968 261.558L30.1715 262.926H29.5511L29.0476 261.685H28.2289ZM29.5867 260.557C29.5867 260.14 29.3867 259.931 28.9866 259.931H28.2289V261.197H28.9968C29.2002 261.197 29.3494 261.14 29.4443 261.024C29.5392 260.906 29.5867 260.75 29.5867 260.557ZM31.9267 262.926V259.443H34.088V259.936H32.4912V261.111H33.8184V261.604H32.4912V262.926H31.9267ZM36.3224 262.189C36.4376 262.389 36.658 262.489 36.9834 262.489C37.3089 262.489 37.5276 262.391 37.6394 262.194C37.7547 261.997 37.8123 261.669 37.8123 261.207C37.8123 260.743 37.753 260.406 37.6344 260.195C37.5191 259.985 37.3021 259.88 36.9834 259.88C36.6648 259.88 36.4461 259.985 36.3274 260.195C36.2088 260.406 36.1495 260.741 36.1495 261.202C36.1495 261.66 36.2071 261.989 36.3224 262.189ZM38.0819 262.555C37.8751 262.84 37.5089 262.982 36.9834 262.982C36.458 262.982 36.0901 262.84 35.8799 262.555C35.6698 262.267 35.5647 261.816 35.5647 261.202C35.5647 260.589 35.6698 260.133 35.8799 259.834C36.0935 259.536 36.4614 259.387 36.9834 259.387C37.5055 259.387 37.8717 259.536 38.0819 259.834C38.292 260.129 38.3971 260.585 38.3971 261.202C38.3971 261.819 38.292 262.27 38.0819 262.555ZM40.7376 261.685V262.926H40.1732V259.443H41.4953C42.2818 259.443 42.6751 259.812 42.6751 260.551C42.6751 261.046 42.4853 261.382 42.1056 261.558L42.6802 262.926H42.0598L41.5563 261.685H40.7376ZM42.0954 260.557C42.0954 260.14 41.8954 259.931 41.4953 259.931H40.7376V261.197H41.5055C41.7089 261.197 41.8581 261.14 41.953 261.024C42.0479 260.906 42.0954 260.75 42.0954 260.557ZM44.4354 262.926V259.443H45.4169L46.1949 262.163L46.973 259.443H47.9595V262.926H47.39V260.068H47.3137L46.4899 262.784H45.9L45.0762 260.068H44.9999V262.926H44.4354ZM49.5746 262.926L50.434 259.443H51.5579L52.4224 262.926H51.8528L51.6647 262.179H50.3272L50.1391 262.926H49.5746ZM50.8714 259.916L50.4391 261.68H51.5528L51.1256 259.916H50.8714ZM54.0376 262.926V259.443H55.0241L56.0819 262.428H56.1581V259.443H56.7226V262.926H55.7564L54.6733 259.936H54.6021V262.926H54.0376ZM59.8121 262.982C59.3036 262.982 58.9578 262.842 58.7747 262.56C58.5951 262.279 58.5052 261.816 58.5052 261.172C58.5052 260.528 58.5968 260.07 58.7798 259.799C58.9629 259.524 59.307 259.387 59.8121 259.387C60.1139 259.387 60.4461 259.429 60.8088 259.514L60.7885 259.972C60.4834 259.918 60.1783 259.89 59.8732 259.89C59.568 259.89 59.3612 259.982 59.2528 260.165C59.1443 260.345 59.09 260.685 59.09 261.187C59.09 261.685 59.1426 262.026 59.2477 262.209C59.3528 262.389 59.5579 262.479 59.863 262.479C60.1681 262.479 60.4766 262.453 60.7885 262.402L60.8038 262.87C60.4546 262.945 60.124 262.982 59.8121 262.982ZM62.5274 262.926V259.443H64.7242V259.936H63.0918V260.923H64.4191V261.411H63.0918V262.428H64.7242V262.926H62.5274ZM68.9168 260.089C68.9168 259.855 69.0032 259.67 69.1761 259.534C69.3524 259.399 69.5948 259.331 69.9033 259.331C70.2118 259.331 70.4491 259.401 70.6153 259.539C70.7814 259.675 70.8644 259.865 70.8644 260.109C70.8644 260.35 70.8102 260.54 70.7017 260.679C70.5932 260.818 70.4017 260.967 70.1271 261.126L70.7475 261.741C70.7712 261.677 70.7949 261.567 70.8187 261.411C70.8424 261.252 70.8577 261.119 70.8644 261.014L71.3984 261.024C71.3509 261.438 71.2679 261.785 71.1492 262.067L71.7543 262.621L71.4391 262.982L70.8644 262.484C70.7526 262.64 70.6034 262.762 70.4169 262.85C70.2305 262.938 70.0254 262.982 69.8016 262.982C69.3236 262.982 68.9846 262.892 68.7846 262.713C68.5845 262.533 68.4845 262.267 68.4845 261.914C68.4845 261.633 68.5439 261.416 68.6625 261.263C68.7812 261.107 68.9727 260.98 69.2372 260.882C69.1049 260.729 69.0185 260.601 68.9778 260.496C68.9371 260.39 68.9168 260.255 68.9168 260.089ZM69.7406 262.489C69.9033 262.489 70.0525 262.462 70.1881 262.408C70.3237 262.35 70.4237 262.272 70.4881 262.174L69.527 261.213C69.3575 261.277 69.2338 261.36 69.1558 261.462C69.0812 261.563 69.0439 261.699 69.0439 261.869C69.0439 262.282 69.2761 262.489 69.7406 262.489ZM69.4762 260.201C69.4762 260.367 69.5524 260.531 69.705 260.694L69.8169 260.811C69.9965 260.709 70.122 260.614 70.1932 260.526C70.2678 260.438 70.3051 260.324 70.3051 260.185C70.3051 259.928 70.1661 259.799 69.8881 259.799C69.6135 259.799 69.4762 259.933 69.4762 260.201ZM76.1532 261.685V262.926H75.5887V259.443H76.9109C77.6974 259.443 78.0906 259.812 78.0906 260.551C78.0906 261.046 77.9008 261.382 77.5211 261.558L78.0957 262.926H77.4753L76.9719 261.685H76.1532ZM77.5109 260.557C77.5109 260.14 77.3109 259.931 76.9109 259.931H76.1532V261.197H76.921C77.1244 261.197 77.2736 261.14 77.3685 261.024C77.4635 260.906 77.5109 260.75 77.5109 260.557ZM79.851 262.926V259.443H82.0478V259.936H80.4154V260.923H81.7427V261.411H80.4154V262.428H82.0478V262.926H79.851ZM84.8026 259.88C84.3721 259.88 84.1568 260.031 84.1568 260.333C84.1568 260.489 84.2077 260.601 84.3094 260.668C84.4111 260.733 84.6348 260.814 84.9806 260.913C85.3298 261.007 85.5756 261.123 85.718 261.258C85.8604 261.391 85.9316 261.601 85.9316 261.889C85.9316 262.255 85.8265 262.53 85.6163 262.713C85.4095 262.892 85.1264 262.982 84.767 262.982C84.4789 262.982 84.1602 262.948 83.811 262.881L83.628 262.845L83.6839 262.392C84.1416 262.453 84.4907 262.484 84.7315 262.484C85.1518 262.484 85.362 262.297 85.362 261.924C85.362 261.779 85.3146 261.672 85.2196 261.604C85.1247 261.533 84.9111 261.457 84.5789 261.375C84.2467 261.291 83.9992 261.175 83.8364 261.029C83.6737 260.884 83.5924 260.653 83.5924 260.338C83.5924 260.023 83.6941 259.785 83.8975 259.626C84.1043 259.463 84.389 259.382 84.7518 259.382C85.0128 259.382 85.3213 259.412 85.6773 259.473L85.8553 259.504L85.8095 259.962C85.3349 259.907 84.9993 259.88 84.8026 259.88ZM88.1994 261.813C88.1994 262.263 88.4367 262.489 88.9114 262.489C89.386 262.489 89.6233 262.263 89.6233 261.813V259.443H90.1928V261.802C90.1928 262.213 90.0844 262.513 89.8674 262.703C89.6538 262.889 89.3334 262.982 88.9063 262.982C88.4825 262.982 88.1638 262.889 87.9503 262.703C87.7367 262.513 87.6299 262.213 87.6299 261.802V259.443H88.1994V261.813ZM94.0393 262.926H92.0865V259.443H92.651V262.423H94.0393V262.926ZM94.8561 259.946V259.443H97.3987V259.946H96.4173V262.926H95.8477V259.946H94.8561ZM98.4786 262.926L99.338 259.443H100.462L101.326 262.926H100.757L100.569 262.179H99.2312L99.043 262.926H98.4786ZM99.7753 259.916L99.3431 261.68H100.457L100.03 259.916H99.7753ZM104.147 262.926H102.942V259.443H104.147C104.682 259.443 105.049 259.578 105.245 259.85C105.442 260.121 105.54 260.546 105.54 261.126C105.54 261.421 105.52 261.672 105.479 261.879C105.442 262.082 105.374 262.267 105.276 262.433C105.082 262.762 104.706 262.926 104.147 262.926ZM104.955 261.126C104.955 260.706 104.903 260.402 104.798 260.216C104.693 260.029 104.476 259.936 104.147 259.936H103.506V262.428H104.147C104.482 262.428 104.706 262.304 104.818 262.057C104.872 261.931 104.908 261.797 104.925 261.655C104.945 261.513 104.955 261.336 104.955 261.126ZM107.923 262.189C108.038 262.389 108.259 262.489 108.584 262.489C108.91 262.489 109.128 262.391 109.24 262.194C109.356 261.997 109.413 261.669 109.413 261.207C109.413 260.743 109.354 260.406 109.235 260.195C109.12 259.985 108.903 259.88 108.584 259.88C108.266 259.88 108.047 259.985 107.928 260.195C107.81 260.406 107.75 260.741 107.75 261.202C107.75 261.66 107.808 261.989 107.923 262.189ZM109.683 262.555C109.476 262.84 109.11 262.982 108.584 262.982C108.059 262.982 107.691 262.84 107.481 262.555C107.271 262.267 107.165 261.816 107.165 261.202C107.165 260.589 107.271 260.133 107.481 259.834C107.694 259.536 108.062 259.387 108.584 259.387C109.106 259.387 109.472 259.536 109.683 259.834C109.893 260.129 109.998 260.585 109.998 261.202C109.998 261.819 109.893 262.27 109.683 262.555ZM112.796 259.88C112.366 259.88 112.15 260.031 112.15 260.333C112.15 260.489 112.201 260.601 112.303 260.668C112.405 260.733 112.628 260.814 112.974 260.913C113.323 261.007 113.569 261.123 113.711 261.258C113.854 261.391 113.925 261.601 113.925 261.889C113.925 262.255 113.82 262.53 113.61 262.713C113.403 262.892 113.12 262.982 112.761 262.982C112.472 262.982 112.154 262.948 111.804 262.881L111.621 262.845L111.677 262.392C112.135 262.453 112.484 262.484 112.725 262.484C113.145 262.484 113.355 262.297 113.355 261.924C113.355 261.779 113.308 261.672 113.213 261.604C113.118 261.533 112.905 261.457 112.572 261.375C112.24 261.291 111.993 261.175 111.83 261.029C111.667 260.884 111.586 260.653 111.586 260.338C111.586 260.023 111.688 259.785 111.891 259.626C112.098 259.463 112.383 259.382 112.745 259.382C113.006 259.382 113.315 259.412 113.671 259.473L113.849 259.504L113.803 259.962C113.328 259.907 112.993 259.88 112.796 259.88Z" fill="#000D3D"/>
<line x1="124.123" y1="261.152" x2="240.86" y2="261.152" stroke="#1440FF" stroke-width="0.591062"/>
<defs>
<linearGradient id="paint0_linear_658_310" x1="-22.1067" y1="193.433" x2="291.071" y2="-55.6351" gradientUnits="userSpaceOnUse">
<stop stop-color="#D9D9D9"/>
<stop offset="1" stop-color="white" stop-opacity="0"/>
</linearGradient>
<clipPath id="clip0_658_310">
<rect width="211" height="51.8739" fill="white" transform="translate(25 80)"/>
</clipPath>
</defs>
</svg>
