<svg width="261" height="281" viewBox="0 0 261 281" fill="none" xmlns="http://www.w3.org/2000/svg">
<path d="M20 0.368164H240.067C250.91 0.368164 259.699 9.15779 259.699 20V179.905H0.368164V20C0.368172 9.1578 9.1578 0.368164 20 0.368164Z" fill="#1440FF"/>
<path d="M20 0.368164H240.067C250.91 0.368164 259.699 9.15779 259.699 20V179.905H0.368164V20C0.368172 9.1578 9.1578 0.368164 20 0.368164Z" stroke="url(#paint0_linear_658_280)" stroke-width="0.736889"/>
<path d="M209.871 26.6875H208.388V22.4002H209.871C210.531 22.4002 210.981 22.5671 211.223 22.9009C211.465 23.2348 211.586 23.7584 211.586 24.4719C211.586 24.8349 211.561 25.1437 211.511 25.3982C211.465 25.6485 211.382 25.8759 211.261 26.0804C211.023 26.4851 210.56 26.6875 209.871 26.6875ZM210.866 24.4719C210.866 23.9545 210.802 23.5811 210.672 23.3516C210.543 23.1221 210.276 23.0073 209.871 23.0073H209.083V26.0741H209.871C210.284 26.0741 210.56 25.9218 210.697 25.6173C210.764 25.4629 210.808 25.2981 210.829 25.1228C210.854 24.9476 210.866 24.7306 210.866 24.4719ZM213.774 26.6875V22.4002H216.478V23.0073H214.469V24.2215H216.103V24.8224H214.469V26.0741H216.478V26.6875H213.774ZM219.869 22.9385C219.339 22.9385 219.074 23.1242 219.074 23.4955C219.074 23.6875 219.137 23.8252 219.262 23.9086C219.387 23.9879 219.662 24.088 220.088 24.209C220.518 24.3259 220.82 24.4677 220.995 24.6346C221.171 24.7974 221.258 25.056 221.258 25.4107C221.258 25.8613 221.129 26.1993 220.87 26.4246C220.616 26.6458 220.267 26.7563 219.825 26.7563C219.47 26.7563 219.078 26.7146 218.648 26.6312L218.423 26.5874L218.492 26.0303C219.055 26.1054 219.485 26.143 219.781 26.143C220.299 26.143 220.557 25.9135 220.557 25.4545C220.557 25.2751 220.499 25.1437 220.382 25.0602C220.265 24.9726 220.002 24.8787 219.593 24.7786C219.185 24.6743 218.88 24.5324 218.68 24.353C218.479 24.1736 218.379 23.8898 218.379 23.5018C218.379 23.1137 218.504 22.8217 218.755 22.6256C219.009 22.4253 219.36 22.3251 219.806 22.3251C220.128 22.3251 220.507 22.3627 220.945 22.4378L221.164 22.4754L221.108 23.0386C220.524 22.9719 220.111 22.9385 219.869 22.9385ZM224.869 26.6875H223.386V22.4002H224.869C225.529 22.4002 225.979 22.5671 226.221 22.9009C226.463 23.2348 226.584 23.7584 226.584 24.4719C226.584 24.8349 226.559 25.1437 226.509 25.3982C226.463 25.6485 226.38 25.8759 226.259 26.0804C226.021 26.4851 225.558 26.6875 224.869 26.6875ZM225.865 24.4719C225.865 23.9545 225.8 23.5811 225.67 23.3516C225.541 23.1221 225.274 23.0073 224.869 23.0073H224.081V26.0741H224.869C225.282 26.0741 225.558 25.9218 225.696 25.6173C225.762 25.4629 225.806 25.2981 225.827 25.1228C225.852 24.9476 225.865 24.7306 225.865 24.4719ZM228.772 26.6875V22.4002H231.476V23.0073H229.467V24.2215H231.101V24.8224H229.467V26.0741H231.476V26.6875H228.772Z" fill="#F3F3F3"/>
<path d="M209.624 40.1436H203.418V38.7562L205.798 36.3028C206.519 35.5628 207.025 34.9836 207.317 34.5649C207.609 34.1463 207.755 33.6887 207.755 33.1922C207.755 32.6859 207.614 32.3257 207.331 32.1115C207.049 31.8973 206.587 31.7902 205.944 31.7902C205.34 31.7902 204.674 31.8583 203.943 31.9946L203.578 32.0531L203.476 30.7679C204.42 30.4856 205.399 30.3444 206.411 30.3444C208.427 30.3444 209.434 31.2401 209.434 33.0315C209.434 33.7325 209.279 34.341 208.967 34.857C208.665 35.373 208.12 35.9961 207.331 36.7263L205.272 38.727H209.624V40.1436ZM211.955 31.5273C212.568 30.7387 213.483 30.3444 214.7 30.3444C215.917 30.3444 216.827 30.7339 217.431 31.5127C218.035 32.2916 218.336 33.5816 218.336 35.3827C218.336 37.1741 218.03 38.4446 217.416 39.1943C216.813 39.9342 215.902 40.3042 214.686 40.3042C213.478 40.3042 212.568 39.9342 211.955 39.1943C211.351 38.4544 211.049 37.1887 211.049 35.3973C211.049 33.5962 211.351 32.3062 211.955 31.5273ZM216.204 32.5642C215.902 32.0287 215.401 31.761 214.7 31.761C213.999 31.761 213.493 32.0287 213.181 32.5642C212.88 33.0899 212.729 34.0197 212.729 35.3535C212.729 36.6873 212.884 37.6122 213.196 38.1282C213.517 38.6345 214.019 38.8876 214.7 38.8876C215.391 38.8876 215.888 38.6345 216.19 38.1282C216.501 37.6122 216.657 36.6873 216.657 35.3535C216.657 34.0197 216.506 33.0899 216.204 32.5642ZM225.968 40.1436H219.761V38.7562L222.142 36.3028C222.862 35.5628 223.368 34.9836 223.661 34.5649C223.953 34.1463 224.099 33.6887 224.099 33.1922C224.099 32.6859 223.957 32.3257 223.675 32.1115C223.393 31.8973 222.93 31.7902 222.288 31.7902C221.684 31.7902 221.017 31.8583 220.287 31.9946L219.922 32.0531L219.82 30.7679C220.764 30.4856 221.743 30.3444 222.755 30.3444C224.77 30.3444 225.778 31.2401 225.778 33.0315C225.778 33.7325 225.622 34.341 225.311 34.857C225.009 35.373 224.464 35.9961 223.675 36.7263L221.616 38.727H225.968V40.1436ZM228.298 31.5273C228.912 30.7387 229.827 30.3444 231.044 30.3444C232.261 30.3444 233.171 30.7339 233.775 31.5127C234.378 32.2916 234.68 33.5816 234.68 35.3827C234.68 37.1741 234.373 38.4446 233.76 39.1943C233.156 39.9342 232.246 40.3042 231.029 40.3042C229.822 40.3042 228.912 39.9342 228.298 39.1943C227.695 38.4544 227.393 37.1887 227.393 35.3973C227.393 33.5962 227.695 32.3062 228.298 31.5273ZM232.548 32.5642C232.246 32.0287 231.745 31.761 231.044 31.761C230.343 31.761 229.837 32.0287 229.525 32.5642C229.223 33.0899 229.072 34.0197 229.072 35.3535C229.072 36.6873 229.228 37.6122 229.54 38.1282C229.861 38.6345 230.362 38.8876 231.044 38.8876C231.735 38.8876 232.232 38.6345 232.533 38.1282C232.845 37.6122 233.001 36.6873 233.001 35.3535C233.001 34.0197 232.85 33.0899 232.548 32.5642Z" fill="#F3F3F3"/>
<g clip-path="url(#clip0_658_280)">
<path fill-rule="evenodd" clip-rule="evenodd" d="M186.527 127.898H178.213C176.819 127.979 176.428 128.325 176.428 130.02V134.69H186.526V127.898H186.527ZM190.953 124.158V144.521H186.527V138.667H176.429V144.521H172.002V128.557C172.002 125.738 173.144 124.158 176.429 124.158H190.955H190.953ZM167.575 128.554V139.574C167.575 143.082 165.604 144.518 163.147 144.518H149.185V124.155H163.147C166.917 124.155 167.575 126.553 167.575 128.555V128.554ZM163.094 129.779C163.094 128.664 162.413 127.895 161.225 127.895H153.611V140.617H161.225C162.959 140.528 163.094 139.489 163.094 138.664V129.779ZM58.95 124.155H63.3774V132.18H73.2805V124.155H77.7079V144.518H73.2805V136.207H63.3774V144.518H58.95V124.155ZM85.2944 124.155L90.8434 132.479L96.3255 124.155H101.701L93.0532 137.174V144.518H88.6257V137.172L79.9192 124.155H85.2928H85.2944ZM126.55 124.155H140.814C142.848 124.155 144.817 124.441 144.758 128.555V144.52H140.332V130.018C140.332 128.265 140.121 127.896 138.746 127.896H130.976V144.52H126.55V124.157V124.155ZM199.806 124.158V144.521H195.379V124.158H199.806ZM103.915 144.518H118.179C121.014 144.518 122.18 143.698 122.123 139.607V124.153H117.695V138.69C117.695 140.434 117.486 140.644 116.109 140.644H108.339V124.153H103.914V144.516L103.915 144.518Z" fill="white"/>
<path fill-rule="evenodd" clip-rule="evenodd" d="M136.502 103.292C134.681 106.115 131.677 108.542 128.066 108.178C119.963 108.057 112.043 106.812 104.699 104.598C104.366 104.507 104.032 104.294 103.85 103.99C103.699 103.565 103.909 103.17 104.214 102.898C110.921 97.4658 118.9 94.9481 126.792 92.3076C129.735 91.4572 132.861 90.5478 136.168 90.9722C136.722 91.0472 137.277 91.245 137.773 91.5418C141.842 93.9717 138.07 100.39 136.502 103.292ZM170.196 80.3591C172.417 82.9853 173.845 86.1251 173.036 89.6958C171.155 97.2217 162.961 101.226 156.439 103.776C153.147 104.874 149.832 105.997 146.272 106.443C145.436 106.549 144.042 106.659 145.071 105.489C150.468 99.342 154.585 92.4687 158.2 85.5077C159.791 82.5258 161.273 79.464 162.651 76.4486C162.746 76.2412 162.84 76.0354 162.934 75.828C163.545 75.1291 164.199 75.402 164.931 75.8024C166.626 76.7294 169.035 78.9838 170.196 80.3575V80.3591ZM113.508 70.2422C113.969 69.7093 114.532 69.0089 113.39 68.9435C113.222 68.9355 113.048 68.9435 112.892 68.9435C112.609 68.9882 112.327 69.0344 112.048 69.0823C108.292 69.7364 104.715 70.799 101.27 72.0993C95.0194 74.7383 87.5239 78.6232 85.6731 85.9066C84.5196 91.4891 88.5242 96.1926 92.9549 99.1059C93.8356 99.5 94.7769 100.714 95.7485 99.8047C100.632 89.5315 105.778 79.2008 113.509 70.2438L113.508 70.2422ZM155.017 71.8345C155.078 70.9043 152.606 70.4369 151.979 70.2741C144.872 68.4266 137.421 67.3369 129.553 67.3943C125.608 67.4549 122.755 71.1261 121.147 74.2516C119.933 76.739 118.537 79.7129 119.569 82.5656C120.115 83.507 120.995 84.1452 121.965 84.3861C126.123 85.2955 129.885 83.6569 133.619 82.7475C140.963 80.3511 148.153 77.6181 154.436 72.704C154.649 72.4424 154.992 72.1823 155.017 71.8345ZM177.135 88.9396C178.518 73.8927 156.321 66.6301 144.245 64.5942C136.09 63.2189 127.475 62.986 119.145 63.9959C107.4 65.6042 95.9911 68.3963 87.0389 76.5284C82.7598 80.5027 80.2102 86.4809 82.3051 92.2167C85.0349 99.1969 92.3183 103.838 98.8134 106.539C118.023 114.308 144.15 114.035 162.752 105.143C169.124 101.927 176.256 96.5867 177.135 88.9396Z" fill="white"/>
</g>
<path d="M45.3034 28.1675C46.9461 28.1675 47.9073 30.016 46.9661 31.3609L46.3725 32.2102L42.1279 38.2734H37.1959L40.9689 32.8857C41.1687 32.5999 40.9649 32.2102 40.6172 32.2102H35.3434C34.6559 32.2102 34.0125 32.546 33.6188 33.1075L30.0017 38.2734H25.0676L29.3142 32.2102L29.7199 31.6307L30.3334 30.7534C31.4685 29.1327 33.323 28.1675 35.3014 28.1675H45.3054H45.3034Z" fill="#E6EAFF"/>
<path d="M64.248 28.1675L61.4183 32.2102H53.8484C53.2928 32.2102 52.7712 32.482 52.4535 32.9357L48.7165 38.2734H43.7844L48.031 32.2102L48.4367 31.6307L49.1861 30.5596C50.2373 29.0608 51.9519 28.1675 53.7824 28.1675H64.25H64.248Z" fill="#E6EAFF"/>
<path d="M68.0674 22.7275L65.2377 26.7703H33.5591L34.5783 25.3135C35.7154 23.6928 37.5679 22.7275 39.5463 22.7275H68.0654H68.0674Z" fill="#E6EAFF"/>
<path d="M0 180.274H260.067V260.755C260.067 271.8 251.113 280.755 240.067 280.755H20C8.9543 280.755 0 271.8 0 260.755V180.274Z" fill="white"/>
<path d="M26.7943 211.415H24.1726V216.05H20.9422V200.133H26.7943C30.5709 200.133 32.4591 201.974 32.4591 205.657C32.4591 207.514 31.9754 208.942 31.0078 209.941C30.0559 210.924 28.6514 211.415 26.7943 211.415ZM24.1726 208.653H26.7709C28.3783 208.653 29.182 207.654 29.182 205.657C29.182 204.674 28.9869 203.972 28.5967 203.55C28.2066 203.113 27.598 202.895 26.7709 202.895H24.1726V208.653ZM43.2969 207.998V212.867C43.3281 213.241 43.3905 213.507 43.4842 213.663C43.5778 213.803 43.7729 213.905 44.0694 213.967L43.9757 216.331C43.1798 216.331 42.54 216.277 42.0562 216.167C41.5881 216.058 41.1121 215.84 40.6283 215.512C39.5047 216.058 38.3577 216.331 37.1873 216.331C34.7684 216.331 33.559 215.052 33.559 212.492C33.559 211.244 33.8945 210.362 34.5655 209.847C35.2366 209.316 36.2665 209.004 37.6555 208.911L40.1602 208.723V207.998C40.1602 207.514 40.0509 207.186 39.8324 207.015C39.614 206.827 39.2628 206.734 38.7791 206.734L34.3783 206.921L34.2846 204.744C35.9544 204.291 37.5384 204.065 39.0365 204.065C40.5503 204.065 41.6349 204.377 42.2903 205.002C42.9614 205.626 43.2969 206.624 43.2969 207.998ZM38.03 211.088C37.1561 211.166 36.7191 211.634 36.7191 212.492C36.7191 213.351 37.1015 213.78 37.8661 213.78C38.4591 213.78 39.1068 213.686 39.809 213.499L40.1602 213.405V210.9L38.03 211.088ZM46.2871 216.05V204.346H49.4005V205.587C50.7113 204.806 51.9598 204.299 53.1458 204.065V207.225C51.8818 207.491 50.7972 207.764 49.892 208.045L49.4239 208.208V216.05H46.2871ZM59.3741 204.065C60.1856 204.065 61.2234 204.19 62.4874 204.44L63.1194 204.58L63.0258 207.061C61.793 206.937 60.88 206.874 60.287 206.874C59.2102 206.874 58.4924 207.108 58.1335 207.576C57.7901 208.029 57.6185 208.895 57.6185 210.175C57.6185 211.454 57.7901 212.336 58.1335 212.82C58.4924 213.288 59.218 213.522 60.3104 213.522L63.0258 213.335L63.1194 215.84C61.4496 216.167 60.1778 216.331 59.3039 216.331C57.5716 216.331 56.3232 215.847 55.5585 214.88C54.8095 213.897 54.4349 212.328 54.4349 210.175C54.4349 208.021 54.8251 206.468 55.6053 205.516C56.3856 204.549 57.6419 204.065 59.3741 204.065ZM67.9271 211.532C67.9427 212.25 68.13 212.773 68.4889 213.101C68.8635 213.413 69.3941 213.569 70.0807 213.569C71.532 213.569 72.8273 213.522 73.9665 213.429L74.622 213.358L74.6688 215.676C72.8741 216.113 71.2511 216.331 69.7998 216.331C68.0364 216.331 66.7567 215.863 65.9608 214.927C65.1649 213.99 64.767 212.469 64.767 210.362C64.767 206.164 66.4914 204.065 69.9403 204.065C73.3423 204.065 75.0433 205.829 75.0433 209.355L74.8092 211.532H67.9271ZM71.9534 209.145C71.9534 208.208 71.8051 207.561 71.5086 207.202C71.2121 206.827 70.6893 206.64 69.9403 206.64C69.2068 206.64 68.684 206.835 68.3719 207.225C68.0754 207.6 67.9193 208.24 67.9037 209.145H71.9534ZM77.285 216.05V204.346H80.4218V216.05H77.285ZM77.285 202.848V199.664H80.4218V202.848H77.285ZM83.32 216.05V204.346H86.4333V205.587C87.7442 204.806 88.9927 204.299 90.1787 204.065V207.225C88.9146 207.491 87.83 207.764 86.9249 208.045L86.4568 208.208V216.05H83.32ZM92.6616 205.68C93.4887 204.604 94.8698 204.065 96.8049 204.065C98.74 204.065 100.121 204.604 100.948 205.68C101.775 206.742 102.189 208.24 102.189 210.175C102.189 214.279 100.394 216.331 96.8049 216.331C93.2156 216.331 91.421 214.279 91.421 210.175C91.421 208.24 91.8345 206.742 92.6616 205.68ZM95.0727 212.82C95.4004 213.382 95.9778 213.663 96.8049 213.663C97.632 213.663 98.2016 213.382 98.5137 212.82C98.8415 212.258 99.0053 211.376 99.0053 210.175C99.0053 208.973 98.8415 208.099 98.5137 207.553C98.2016 207.007 97.632 206.734 96.8049 206.734C95.9778 206.734 95.4004 207.007 95.0727 207.553C94.7606 208.099 94.6045 208.973 94.6045 210.175C94.6045 211.376 94.7606 212.258 95.0727 212.82ZM30.0949 240.05V233.449H24.1726V240.05H20.9422V224.133H24.1726V230.64H30.0949V224.133H33.3253V240.05H30.0949ZM36.998 229.68C37.8251 228.604 39.2062 228.065 41.1413 228.065C43.0764 228.065 44.4575 228.604 45.2846 229.68C46.1117 230.742 46.5252 232.24 46.5252 234.175C46.5252 238.279 44.7306 240.331 41.1413 240.331C37.552 240.331 35.7574 238.279 35.7574 234.175C35.7574 232.24 36.1709 230.742 36.998 229.68ZM39.4091 236.82C39.7368 237.382 40.3142 237.663 41.1413 237.663C41.9684 237.663 42.538 237.382 42.8501 236.82C43.1778 236.258 43.3417 235.376 43.3417 234.175C43.3417 232.973 43.1778 232.099 42.8501 231.553C42.538 231.007 41.9684 230.734 41.1413 230.734C40.3142 230.734 39.7368 231.007 39.4091 231.553C39.097 232.099 38.9409 232.973 38.9409 234.175C38.9409 235.376 39.097 236.258 39.4091 236.82ZM51.9613 240.05H48.8246V228.346H51.9379V229.002C53.0147 228.377 53.9354 228.065 54.7001 228.065C55.9641 228.065 56.9395 228.432 57.6261 229.165C59.0619 228.432 60.3727 228.065 61.5588 228.065C63.1037 228.065 64.1727 228.518 64.7657 229.423C65.3743 230.312 65.6787 231.74 65.6787 233.707V240.05H62.5419V233.8C62.5419 232.801 62.4327 232.068 62.2142 231.6C61.9957 231.116 61.5588 230.874 60.9033 230.874C60.4039 230.874 59.7953 230.983 59.0775 231.202L58.7263 231.319C58.7888 232.489 58.82 233.379 58.82 233.988V240.05H55.6832V234.034C55.6832 232.88 55.5818 232.068 55.3789 231.6C55.1761 231.116 54.7313 230.874 54.0447 230.874C53.436 230.874 52.8352 230.983 52.2422 231.202L51.9613 231.296V240.05ZM69.0932 229.68C69.9203 228.604 71.3014 228.065 73.2365 228.065C75.1716 228.065 76.5527 228.604 77.3798 229.68C78.2069 230.742 78.6204 232.24 78.6204 234.175C78.6204 238.279 76.8258 240.331 73.2365 240.331C69.6472 240.331 67.8525 238.279 67.8525 234.175C67.8525 232.24 68.2661 230.742 69.0932 229.68ZM71.5042 236.82C71.832 237.382 72.4094 237.663 73.2365 237.663C74.0636 237.663 74.6332 237.382 74.9453 236.82C75.273 236.258 75.4369 235.376 75.4369 234.175C75.4369 232.973 75.273 232.099 74.9453 231.553C74.6332 231.007 74.0636 230.734 73.2365 230.734C72.4094 230.734 71.832 231.007 71.5042 231.553C71.1921 232.099 71.0361 232.973 71.0361 234.175C71.0361 235.376 71.1921 236.258 71.5042 236.82ZM81.0602 240.05V223.664H84.1969V240.05H81.0602ZM87.8611 229.68C88.6882 228.604 90.0693 228.065 92.0044 228.065C93.9395 228.065 95.3206 228.604 96.1477 229.68C96.9748 230.742 97.3883 232.24 97.3883 234.175C97.3883 238.279 95.5937 240.331 92.0044 240.331C88.4151 240.331 86.6204 238.279 86.6204 234.175C86.6204 232.24 87.034 230.742 87.8611 229.68ZM90.2721 236.82C90.5999 237.382 91.1773 237.663 92.0044 237.663C92.8315 237.663 93.4011 237.382 93.7132 236.82C94.0409 236.258 94.2048 235.376 94.2048 234.175C94.2048 232.973 94.0409 232.099 93.7132 231.553C93.4011 231.007 92.8315 230.734 92.0044 230.734C91.1773 230.734 90.5999 231.007 90.2721 231.553C89.96 232.099 89.804 232.973 89.804 234.175C89.804 235.376 89.96 236.258 90.2721 236.82ZM110.292 241.502C110.292 242.844 109.777 243.835 108.747 244.474C107.717 245.114 106.32 245.434 104.557 245.434C102.809 245.434 101.459 245.2 100.507 244.732C99.5706 244.264 99.1024 243.413 99.1024 242.18C99.1024 241.197 99.6642 240.269 100.788 239.395C100.21 239.005 99.9217 238.412 99.9217 237.616C99.9217 237.304 100.156 236.789 100.624 236.071L100.835 235.743C99.7735 234.978 99.2429 233.855 99.2429 232.372C99.2429 230.874 99.6876 229.79 100.577 229.119C101.482 228.448 102.676 228.112 104.159 228.112C104.83 228.112 105.493 228.19 106.148 228.346L106.523 228.416L110.292 228.299V230.804L108.536 230.664C108.879 231.194 109.051 231.725 109.051 232.255C109.051 233.816 108.653 234.893 107.857 235.486C107.061 236.079 105.813 236.375 104.112 236.375C103.753 236.375 103.433 236.344 103.152 236.282C102.996 236.687 102.918 237.023 102.918 237.288C102.918 237.538 103.051 237.709 103.316 237.803C103.581 237.897 104.205 237.951 105.189 237.967C107.155 237.983 108.497 238.248 109.215 238.763C109.933 239.262 110.292 240.175 110.292 241.502ZM102.192 241.853C102.192 242.524 103.012 242.859 104.65 242.859C106.304 242.859 107.132 242.469 107.132 241.689C107.132 241.268 106.991 240.994 106.71 240.87C106.429 240.76 105.836 240.698 104.931 240.682L102.824 240.518C102.403 240.94 102.192 241.385 102.192 241.853ZM102.38 232.279C102.38 233.418 102.973 233.988 104.159 233.988C105.36 233.988 105.961 233.418 105.961 232.279C105.961 231.124 105.36 230.546 104.159 230.546C102.973 230.546 102.38 231.124 102.38 232.279ZM121.157 231.998V236.867C121.189 237.241 121.251 237.507 121.345 237.663C121.438 237.803 121.633 237.905 121.93 237.967L121.836 240.331C121.04 240.331 120.401 240.277 119.917 240.167C119.449 240.058 118.973 239.84 118.489 239.512C117.365 240.058 116.218 240.331 115.048 240.331C112.629 240.331 111.419 239.052 111.419 236.492C111.419 235.244 111.755 234.362 112.426 233.847C113.097 233.316 114.127 233.004 115.516 232.911L118.021 232.723V231.998C118.021 231.514 117.911 231.186 117.693 231.015C117.474 230.827 117.123 230.734 116.64 230.734L112.239 230.921L112.145 228.744C113.815 228.291 115.399 228.065 116.897 228.065C118.411 228.065 119.495 228.377 120.151 229.002C120.822 229.626 121.157 230.624 121.157 231.998ZM115.89 235.088C115.017 235.166 114.58 235.634 114.58 236.492C114.58 237.351 114.962 237.78 115.727 237.78C116.32 237.78 116.967 237.686 117.67 237.499L118.021 237.405V234.9L115.89 235.088ZM134.096 223.664V240.05H130.983V239.559C129.891 240.074 128.946 240.331 128.15 240.331C126.449 240.331 125.263 239.84 124.592 238.856C123.921 237.873 123.586 236.321 123.586 234.198C123.586 232.06 123.984 230.507 124.78 229.54C125.591 228.557 126.808 228.065 128.431 228.065C128.931 228.065 129.625 228.143 130.515 228.299L130.96 228.393V223.664H134.096ZM130.632 237.241L130.96 237.171V231.015C130.101 230.859 129.337 230.781 128.665 230.781C127.401 230.781 126.769 231.904 126.769 234.151C126.769 235.369 126.91 236.235 127.191 236.75C127.472 237.265 127.932 237.522 128.572 237.522C129.227 237.522 129.914 237.429 130.632 237.241ZM137.627 229.68C138.454 228.604 139.835 228.065 141.77 228.065C143.705 228.065 145.086 228.604 145.913 229.68C146.741 230.742 147.154 232.24 147.154 234.175C147.154 238.279 145.359 240.331 141.77 240.331C138.181 240.331 136.386 238.279 136.386 234.175C136.386 232.24 136.8 230.742 137.627 229.68ZM140.038 236.82C140.366 237.382 140.943 237.663 141.77 237.663C142.597 237.663 143.167 237.382 143.479 236.82C143.807 236.258 143.971 235.376 143.971 234.175C143.971 232.973 143.807 232.099 143.479 231.553C143.167 231.007 142.597 230.734 141.77 230.734C140.943 230.734 140.366 231.007 140.038 231.553C139.726 232.099 139.57 232.973 139.57 234.175C139.57 235.376 139.726 236.258 140.038 236.82Z" fill="#00020A"/>
<path d="M20.8881 261.843H20.1762V262.926H19.6117V259.443H20.8881C21.678 259.443 22.073 259.833 22.073 260.612C22.073 261.013 21.9729 261.318 21.7729 261.528C21.5763 261.738 21.2814 261.843 20.8881 261.843ZM20.1762 261.355H20.883C21.2898 261.355 21.4932 261.107 21.4932 260.612C21.4932 260.375 21.4441 260.202 21.3458 260.094C21.2474 259.985 21.0932 259.931 20.883 259.931H20.1762V261.355ZM23.7349 262.926V259.443H25.9317V259.936H24.2994V260.923H25.6266V261.411H24.2994V262.428H25.9317V262.926H23.7349ZM28.2289 261.685V262.926H27.6645V259.443H28.9866C29.7731 259.443 30.1664 259.812 30.1664 260.551C30.1664 261.046 29.9765 261.382 29.5968 261.558L30.1715 262.926H29.5511L29.0476 261.685H28.2289ZM29.5867 260.557C29.5867 260.14 29.3867 259.931 28.9866 259.931H28.2289V261.197H28.9968C29.2002 261.197 29.3494 261.14 29.4443 261.024C29.5392 260.906 29.5867 260.75 29.5867 260.557ZM31.9267 262.926V259.443H34.088V259.936H32.4912V261.111H33.8184V261.604H32.4912V262.926H31.9267ZM36.3224 262.189C36.4376 262.389 36.658 262.489 36.9834 262.489C37.3089 262.489 37.5276 262.391 37.6394 262.194C37.7547 261.997 37.8123 261.669 37.8123 261.207C37.8123 260.743 37.753 260.406 37.6344 260.195C37.5191 259.985 37.3021 259.88 36.9834 259.88C36.6648 259.88 36.4461 259.985 36.3274 260.195C36.2088 260.406 36.1495 260.741 36.1495 261.202C36.1495 261.66 36.2071 261.989 36.3224 262.189ZM38.0819 262.555C37.8751 262.84 37.5089 262.982 36.9834 262.982C36.458 262.982 36.0901 262.84 35.8799 262.555C35.6698 262.267 35.5647 261.816 35.5647 261.202C35.5647 260.589 35.6698 260.133 35.8799 259.834C36.0935 259.536 36.4614 259.387 36.9834 259.387C37.5055 259.387 37.8717 259.536 38.0819 259.834C38.292 260.129 38.3971 260.585 38.3971 261.202C38.3971 261.819 38.292 262.27 38.0819 262.555ZM40.7376 261.685V262.926H40.1732V259.443H41.4953C42.2818 259.443 42.6751 259.812 42.6751 260.551C42.6751 261.046 42.4853 261.382 42.1056 261.558L42.6802 262.926H42.0598L41.5563 261.685H40.7376ZM42.0954 260.557C42.0954 260.14 41.8954 259.931 41.4953 259.931H40.7376V261.197H41.5055C41.7089 261.197 41.8581 261.14 41.953 261.024C42.0479 260.906 42.0954 260.75 42.0954 260.557ZM44.4354 262.926V259.443H45.4169L46.1949 262.163L46.973 259.443H47.9595V262.926H47.39V260.068H47.3137L46.4899 262.784H45.9L45.0762 260.068H44.9999V262.926H44.4354ZM49.5746 262.926L50.434 259.443H51.5579L52.4224 262.926H51.8528L51.6647 262.179H50.3272L50.1391 262.926H49.5746ZM50.8714 259.916L50.4391 261.68H51.5528L51.1256 259.916H50.8714ZM54.0376 262.926V259.443H55.0241L56.0819 262.428H56.1581V259.443H56.7226V262.926H55.7564L54.6733 259.936H54.6021V262.926H54.0376ZM59.8121 262.982C59.3036 262.982 58.9578 262.842 58.7747 262.56C58.5951 262.279 58.5052 261.816 58.5052 261.172C58.5052 260.528 58.5968 260.07 58.7798 259.799C58.9629 259.524 59.307 259.387 59.8121 259.387C60.1139 259.387 60.4461 259.429 60.8088 259.514L60.7885 259.972C60.4834 259.918 60.1783 259.89 59.8732 259.89C59.568 259.89 59.3612 259.982 59.2528 260.165C59.1443 260.345 59.09 260.685 59.09 261.187C59.09 261.685 59.1426 262.026 59.2477 262.209C59.3528 262.389 59.5579 262.479 59.863 262.479C60.1681 262.479 60.4766 262.453 60.7885 262.402L60.8038 262.87C60.4546 262.945 60.124 262.982 59.8121 262.982ZM62.5274 262.926V259.443H64.7242V259.936H63.0918V260.923H64.4191V261.411H63.0918V262.428H64.7242V262.926H62.5274ZM68.9168 260.089C68.9168 259.855 69.0032 259.67 69.1761 259.534C69.3524 259.399 69.5948 259.331 69.9033 259.331C70.2118 259.331 70.4491 259.401 70.6153 259.539C70.7814 259.675 70.8644 259.865 70.8644 260.109C70.8644 260.35 70.8102 260.54 70.7017 260.679C70.5932 260.818 70.4017 260.967 70.1271 261.126L70.7475 261.741C70.7712 261.677 70.7949 261.567 70.8187 261.411C70.8424 261.252 70.8577 261.119 70.8644 261.014L71.3984 261.024C71.3509 261.438 71.2679 261.785 71.1492 262.067L71.7543 262.621L71.4391 262.982L70.8644 262.484C70.7526 262.64 70.6034 262.762 70.4169 262.85C70.2305 262.938 70.0254 262.982 69.8016 262.982C69.3236 262.982 68.9846 262.892 68.7846 262.713C68.5845 262.533 68.4845 262.267 68.4845 261.914C68.4845 261.633 68.5439 261.416 68.6625 261.263C68.7812 261.107 68.9727 260.98 69.2372 260.882C69.1049 260.729 69.0185 260.601 68.9778 260.496C68.9371 260.39 68.9168 260.255 68.9168 260.089ZM69.7406 262.489C69.9033 262.489 70.0525 262.462 70.1881 262.408C70.3237 262.35 70.4237 262.272 70.4881 262.174L69.527 261.213C69.3575 261.277 69.2338 261.36 69.1558 261.462C69.0812 261.563 69.0439 261.699 69.0439 261.869C69.0439 262.282 69.2761 262.489 69.7406 262.489ZM69.4762 260.201C69.4762 260.367 69.5524 260.531 69.705 260.694L69.8169 260.811C69.9965 260.709 70.122 260.614 70.1932 260.526C70.2678 260.438 70.3051 260.324 70.3051 260.185C70.3051 259.928 70.1661 259.799 69.8881 259.799C69.6135 259.799 69.4762 259.933 69.4762 260.201ZM76.1532 261.685V262.926H75.5887V259.443H76.9109C77.6974 259.443 78.0906 259.812 78.0906 260.551C78.0906 261.046 77.9008 261.382 77.5211 261.558L78.0957 262.926H77.4753L76.9719 261.685H76.1532ZM77.5109 260.557C77.5109 260.14 77.3109 259.931 76.9109 259.931H76.1532V261.197H76.921C77.1244 261.197 77.2736 261.14 77.3685 261.024C77.4635 260.906 77.5109 260.75 77.5109 260.557ZM79.851 262.926V259.443H82.0478V259.936H80.4154V260.923H81.7427V261.411H80.4154V262.428H82.0478V262.926H79.851ZM84.8026 259.88C84.3721 259.88 84.1568 260.031 84.1568 260.333C84.1568 260.489 84.2077 260.601 84.3094 260.668C84.4111 260.733 84.6348 260.814 84.9806 260.913C85.3298 261.007 85.5756 261.123 85.718 261.258C85.8604 261.391 85.9316 261.601 85.9316 261.889C85.9316 262.255 85.8265 262.53 85.6163 262.713C85.4095 262.892 85.1264 262.982 84.767 262.982C84.4789 262.982 84.1602 262.948 83.811 262.881L83.628 262.845L83.6839 262.392C84.1416 262.453 84.4907 262.484 84.7315 262.484C85.1518 262.484 85.362 262.297 85.362 261.924C85.362 261.779 85.3146 261.672 85.2196 261.604C85.1247 261.533 84.9111 261.457 84.5789 261.375C84.2467 261.291 83.9992 261.175 83.8364 261.029C83.6737 260.884 83.5924 260.653 83.5924 260.338C83.5924 260.023 83.6941 259.785 83.8975 259.626C84.1043 259.463 84.389 259.382 84.7518 259.382C85.0128 259.382 85.3213 259.412 85.6773 259.473L85.8553 259.504L85.8095 259.962C85.3349 259.907 84.9993 259.88 84.8026 259.88ZM88.1994 261.813C88.1994 262.263 88.4367 262.489 88.9114 262.489C89.386 262.489 89.6233 262.263 89.6233 261.813V259.443H90.1928V261.802C90.1928 262.213 90.0844 262.513 89.8674 262.703C89.6538 262.889 89.3334 262.982 88.9063 262.982C88.4825 262.982 88.1638 262.889 87.9503 262.703C87.7367 262.513 87.6299 262.213 87.6299 261.802V259.443H88.1994V261.813ZM94.0393 262.926H92.0865V259.443H92.651V262.423H94.0393V262.926ZM94.8561 259.946V259.443H97.3987V259.946H96.4173V262.926H95.8477V259.946H94.8561ZM98.4786 262.926L99.338 259.443H100.462L101.326 262.926H100.757L100.569 262.179H99.2312L99.043 262.926H98.4786ZM99.7753 259.916L99.3431 261.68H100.457L100.03 259.916H99.7753ZM104.147 262.926H102.942V259.443H104.147C104.682 259.443 105.049 259.578 105.245 259.85C105.442 260.121 105.54 260.546 105.54 261.126C105.54 261.421 105.52 261.672 105.479 261.879C105.442 262.082 105.374 262.267 105.276 262.433C105.082 262.762 104.706 262.926 104.147 262.926ZM104.955 261.126C104.955 260.706 104.903 260.402 104.798 260.216C104.693 260.029 104.476 259.936 104.147 259.936H103.506V262.428H104.147C104.482 262.428 104.706 262.304 104.818 262.057C104.872 261.931 104.908 261.797 104.925 261.655C104.945 261.513 104.955 261.336 104.955 261.126ZM107.923 262.189C108.038 262.389 108.259 262.489 108.584 262.489C108.91 262.489 109.128 262.391 109.24 262.194C109.356 261.997 109.413 261.669 109.413 261.207C109.413 260.743 109.354 260.406 109.235 260.195C109.12 259.985 108.903 259.88 108.584 259.88C108.266 259.88 108.047 259.985 107.928 260.195C107.81 260.406 107.75 260.741 107.75 261.202C107.75 261.66 107.808 261.989 107.923 262.189ZM109.683 262.555C109.476 262.84 109.11 262.982 108.584 262.982C108.059 262.982 107.691 262.84 107.481 262.555C107.271 262.267 107.165 261.816 107.165 261.202C107.165 260.589 107.271 260.133 107.481 259.834C107.694 259.536 108.062 259.387 108.584 259.387C109.106 259.387 109.472 259.536 109.683 259.834C109.893 260.129 109.998 260.585 109.998 261.202C109.998 261.819 109.893 262.27 109.683 262.555ZM112.796 259.88C112.366 259.88 112.15 260.031 112.15 260.333C112.15 260.489 112.201 260.601 112.303 260.668C112.405 260.733 112.628 260.814 112.974 260.913C113.323 261.007 113.569 261.123 113.711 261.258C113.854 261.391 113.925 261.601 113.925 261.889C113.925 262.255 113.82 262.53 113.61 262.713C113.403 262.892 113.12 262.982 112.761 262.982C112.472 262.982 112.154 262.948 111.804 262.881L111.621 262.845L111.677 262.392C112.135 262.453 112.484 262.484 112.725 262.484C113.145 262.484 113.355 262.297 113.355 261.924C113.355 261.779 113.308 261.672 113.213 261.604C113.118 261.533 112.905 261.457 112.572 261.375C112.24 261.291 111.993 261.175 111.83 261.029C111.667 260.884 111.586 260.653 111.586 260.338C111.586 260.023 111.688 259.785 111.891 259.626C112.098 259.463 112.383 259.382 112.745 259.382C113.006 259.382 113.315 259.412 113.671 259.473L113.849 259.504L113.803 259.962C113.328 259.907 112.993 259.88 112.796 259.88Z" fill="#000D3D"/>
<line x1="124.123" y1="261.152" x2="240.86" y2="261.152" stroke="#1440FF" stroke-width="0.591062"/>
<defs>
<linearGradient id="paint0_linear_658_280" x1="-22.1067" y1="193.433" x2="291.071" y2="-55.6351" gradientUnits="userSpaceOnUse">
<stop stop-color="#D9D9D9"/>
<stop offset="1" stop-color="white" stop-opacity="0"/>
</linearGradient>
<clipPath id="clip0_658_280">
<rect width="140.856" height="81.1505" fill="white" transform="translate(58.9514 63.3726)"/>
</clipPath>
</defs>
</svg>
